<?xml version="1.0" encoding="utf-8"?>
<!DOCTYPE svg PUBLIC "-//W3C//DTD SVG 1.0//EN" "http://www.w3.org/TR/2001/REC-SVG-20010904/DTD/svg10.dtd">
<svg version="1.0" xmlns="http://www.w3.org/2000/svg" width="1536px" height="1024px" viewBox="0 0 1536 1024" preserveAspectRatio="xMidYMid meet">
 <g fill="#ffffff">
  <path d="M632 886 l0 -6 3.5 0 3.5 0 0 6 0 6 -3.5 0 -3.5 0 0 -6z"/>
  <path d="M1020 887.8 c0 -1.8 0.3 -5.7 0.6 -8.5 0.7 -5.3 0.7 -5.3 4.2 -5.3 l3.5 0 -0.7 5.3 c-0.3 2.8 -0.6 6.7 -0.6 8.5 0 3 -0.2 3.2 -3.5 3.2 -3.3 0 -3.5 -0.2 -3.5 -3.2z"/>
  <path d="M417 879.5 l0 -5.5 3.5 0 3.5 0 0 5.5 0 5.5 -3.5 0 -3.5 0 0 -5.5z"/>
  <path d="M613 877.5 c0 -3.3 0.2 -3.5 3.5 -3.5 3.3 0 3.5 0.2 3.5 3.5 0 3.3 -0.2 3.5 -3.5 3.5 -3.3 0 -3.5 -0.2 -3.5 -3.5z"/>
  <path d="M935 789 l0 -4 4.5 0 4.5 0 0 4 0 4 -4.5 0 -4.5 0 0 -4z"/>
  <path d="M750 752.5 l0 -6.5 3.4 0 c3.2 0 3.4 0.2 4 4.6 1.1 8.3 1 8.4 -3.4 8.4 l-4 0 0 -6.5z"/>
  <path d="M928.2 738.3 c0.3 -3.6 0.5 -3.8 4.1 -4.1 l3.7 -0.3 0 4 0 4.1 -4.1 0 -4 0 0.3 -3.7z"/>
  <path d="M910 739.6 c0 -0.9 -1.2 -1.6 -2.7 -1.8 -2.3 -0.2 -2.9 -0.9 -3.1 -3.3 -0.2 -1.6 -1.3 -3.7 -2.4 -4.6 -1.4 -1.2 -1.8 -2.7 -1.6 -5.1 0.3 -3 0.6 -3.3 3.9 -3.6 3.8 -0.3 4.9 1 4.9 6.6 0 1.3 0.6 2.2 1.6 2.2 0.9 0 1.8 0.9 2.1 2 0.3 1.1 1.4 2 2.4 2 1.5 0 1.9 0.7 1.9 3.5 0 3.3 -0.2 3.5 -3.5 3.5 -2.4 0 -3.5 -0.5 -3.5 -1.4z"/>
  <path d="M875.7 733.3 c-0.4 -0.3 -0.7 -2.6 -0.7 -5 l0 -4.3 4.5 0 c4.5 0 4.5 0 4.5 3.4 0 5.3 -0.9 6.6 -4.4 6.6 -1.8 0 -3.6 -0.3 -3.9 -0.7z"/>
  <path d="M415.5 676 c-1.1 -1.6 -2.6 -3 -3.2 -3 -0.8 0 -1.3 -1.4 -1.3 -3.6 l0 -3.7 6.2 0.7 c3.5 0.4 6.4 0.9 6.5 1 0.1 0.1 0.5 2.8 0.9 5.9 l0.7 5.7 -3.9 0 c-3.2 0 -4.3 -0.5 -5.9 -3z"/>
  <path d="M285.7 670.3 c-0.4 -0.3 -0.7 -2.1 -0.7 -4 0 -2.8 0.3 -3.3 2.4 -3.3 1.3 0 2.6 -0.6 2.8 -1.2 0.4 -1 4.8 -1.4 16.6 -1.7 l16.2 -0.3 0 4 0 4 -14.2 0.4 c-10 0.2 -14.3 0.7 -14.6 1.6 -0.4 1.2 -7.4 1.7 -8.5 0.5z"/>
  <path d="M352 664 c0 -3.9 0.1 -4 3.5 -4 3.4 0 3.5 0.1 3.5 4 0 3.9 -0.1 4 -3.5 4 -3.4 0 -3.5 -0.1 -3.5 -4z"/>
  <path d="M360 664 l0 -4 4 0 4 0 0 4 0 4 -4 0 -4 0 0 -4z"/>
  <path d="M903 610 l0 -4 4.5 0 4.5 0 0 4 0 4 -4.5 0 -4.5 0 0 -4z"/>
  <path d="M637 489.5 c0 -1.9 0.5 -3.5 1 -3.5 0.6 0 1 -0.9 1 -2 0 -1.6 0.7 -2 3.5 -2 l3.5 0 0 5.5 0 5.5 -4.5 0 c-4.5 0 -4.5 0 -4.5 -3.5z"/>
  <path d="M456 481.5 c0 -0.8 -0.4 -1.5 -1 -1.5 -0.5 0 -1 -1.6 -1 -3.5 0 -3.3 0.2 -3.5 3.5 -3.5 2.4 0 3.5 0.5 3.5 1.5 0 0.8 0.7 1.5 1.5 1.5 1 0 1.5 1.1 1.5 3.5 0 3.4 -0.1 3.5 -4 3.5 -2.9 0 -4 -0.4 -4 -1.5z"/>
  <path d="M866.2 476.8 c0.3 -5.2 0.4 -5.3 3.7 -5.6 4.1 -0.4 5.1 0.8 5.1 6.6 l0 4.2 -4.6 0 -4.5 0 0.3 -5.2z"/>
  <path d="M434 465.5 c0 -3.4 0.1 -3.5 4 -3.5 3.9 0 4 0.1 4 3.5 0 3.4 -0.1 3.5 -4 3.5 -3.9 0 -4 -0.1 -4 -3.5z"/>
  <path d="M415 460.5 c0 -3.5 0 -3.5 4.5 -3.5 4.5 0 4.5 0 4.5 3.5 0 3.5 0 3.5 -4.5 3.5 -4.5 0 -4.5 0 -4.5 -3.5z"/>
  <path d="M496.3 436.8 c-1.8 -0.9 -2.3 -2 -2.3 -5 0 -3.5 0.2 -3.8 3 -3.8 1.6 0 4.1 0.5 5.5 1.2 2 0.9 2.5 1.8 2.5 5 0 3.6 -0.1 3.8 -3.2 3.7 -1.8 0 -4.3 -0.5 -5.5 -1.1z"/>
  <path d="M484 430 c0 -0.5 -0.7 -1 -1.5 -1 -1.1 0 -1.5 -1.1 -1.5 -4 0 -3.9 0.1 -4 3.5 -4 2.4 0 3.5 0.5 3.5 1.5 0 0.8 0.7 1.5 1.5 1.5 1 0 1.5 1.1 1.5 3.5 0 3.3 -0.2 3.5 -3.5 3.5 -1.9 0 -3.5 -0.4 -3.5 -1z"/>
  <path d="M294.6 426.8 c-0.3 -0.7 -0.7 -4.1 -1.1 -7.5 -0.7 -7 -3.3 -15.4 -6.6 -21.3 -4 -7 -13 -12.9 -23.1 -15 l-5.8 -1.1 0 -3.9 0 -3.8 7.1 -1.7 c8.6 -1.9 11.7 -3.4 17 -8.2 5.8 -5.3 8.7 -11.7 10.6 -23.6 2.1 -13.4 1.8 -12.7 5.6 -12.7 l3.3 0 1.3 8.5 c2.2 14.5 4 19.2 9.9 25.7 5.2 5.8 9.6 7.7 25.5 11.2 2.4 0.6 2.7 1.1 2.7 4.4 l0 3.8 -7 1.2 c-18.3 3.1 -27.2 13.6 -30.3 35.7 l-1.2 9 -3.8 0.3 c-2.4 0.2 -3.9 -0.1 -4.1 -1z"/>
  <path d="M927.6 405.9 c-1.4 -7 -1 -7.9 3.4 -7.9 l4 0 0 5.5 0 5.5 -3.4 0 c-3 0 -3.4 -0.4 -4 -3.1z"/>
  <path d="M408 383.5 c0 -1.9 0.5 -3.5 1 -3.5 0.6 0 1 -0.7 1 -1.5 0 -0.9 0.9 -1.5 2.5 -1.5 1.4 0 2.5 -0.4 2.5 -1 0 -0.5 2 -1 4.5 -1 l4.5 0 0 5 0 5 -4.5 0 c-2.5 0 -4.5 0.5 -4.5 1 0 0.6 -1.6 1 -3.5 1 -3.3 0 -3.5 -0.2 -3.5 -3.5z"/>
  <path d="M434.7 386.3 c-0.4 -0.3 -0.7 -2.6 -0.7 -5 0 -4.2 0.1 -4.3 3.4 -4.3 3.8 0 4.6 1.2 4.6 6.6 0 3.2 -0.2 3.4 -3.3 3.4 -1.9 0 -3.7 -0.3 -4 -0.7z"/>
  <path d="M942.6 356.4 c-1.1 -3 -0.6 -7.2 1 -7.8 0.9 -0.3 3.3 -0.6 5.5 -0.6 3.8 0 3.9 0.1 3.9 3.6 0 2.3 -0.6 4.2 -1.7 5 -2.5 1.9 -7.9 1.8 -8.7 -0.2z"/>
  <path d="M1067.8 356.3 c-1.3 -0.3 -1.8 -1.4 -1.8 -3.8 0 -3.6 1.3 -4.5 6 -4.5 3 0 4 1.5 4 6.1 0 2.6 -0.3 2.9 -3.2 2.8 -1.8 -0.1 -4.1 -0.3 -5 -0.6z"/>
  <path d="M974 350 c0 -3.9 0.1 -4 3.5 -4 3.4 0 3.5 0.1 3.5 4 0 3.9 -0.1 4 -3.5 4 -3.4 0 -3.5 -0.1 -3.5 -4z"/>
  <path d="M662.3 319.4 c0.5 -5.2 1.7 -6.4 6.5 -6.4 1.9 0 3.2 -0.5 3.2 -1.2 0 -1.9 4.8 -3.8 9.2 -3.8 2.6 0 3.8 -0.4 3.8 -1.4 0 -1.6 3 -2.6 7.8 -2.6 2.2 0 3.2 -0.5 3.2 -1.5 0 -1.1 1.2 -1.5 4.5 -1.5 l4.5 0 0 4 c0 3.9 -0.1 4 -3.5 4 -2.3 0 -3.5 0.5 -3.5 1.4 0 1.4 -4.2 2.6 -9.1 2.6 -1.8 0 -2.9 0.5 -2.9 1.3 0 1.4 -4 3.7 -6.5 3.7 -0.8 0 -1.5 0.4 -1.5 0.8 0 0.4 -2 1.4 -4.5 2.1 -2.5 0.7 -4.5 1.7 -4.5 2.2 0 0.5 -1.6 0.9 -3.6 0.9 l-3.7 0 0.6 -4.6z"/>
  <path d="M846.3 310.3 c-0.8 -0.2 -1.3 -2.2 -1.3 -4.4 0 -3.7 0.2 -3.9 3.1 -3.9 3.9 0 5.9 2 5.9 5.9 0 2.8 -0.3 3.1 -3.2 3 -1.8 0 -3.9 -0.3 -4.5 -0.6z"/>
  <path d="M825.8 304.7 c-4.7 -1 -4.8 -1.1 -4.8 -4.9 0 -3.7 0.1 -3.8 3.4 -3.8 1.9 0 5.7 0.5 8.5 1.2 5 1.1 5.1 1.2 5.1 5 0 3.8 0 3.8 -3.7 3.7 -2.1 -0.1 -5.9 -0.6 -8.5 -1.2z"/>
  <path d="M810.5 301.5 c-0.5 -0.1 -4.3 -0.9 -8.3 -1.6 l-7.3 -1.2 0.3 -3.6 c0.3 -3.5 0.4 -3.6 4.3 -3.5 2.2 0.1 7.7 0.7 12.3 1.4 l8.2 1.3 0 3.9 0 3.8 -4.2 -0.1 c-2.4 0 -4.7 -0.2 -5.3 -0.4z"/>
  <path d="M1128.4 241.4 c0.7 -6 2.3 -8.4 5.5 -8.4 1.2 0 2.1 -0.6 2.1 -1.4 0 -1.8 2.2 -2.6 7.1 -2.6 2.1 0 3.9 -0.4 3.9 -1 0 -0.6 5.5 -1 14.5 -1 l14.5 0 0 4 0 4 -14.1 0 c-11.1 0 -14.4 0.3 -15.5 1.5 -0.9 0.8 -2.6 1.5 -4 1.5 -1.3 0 -2.4 0.5 -2.4 1.1 0 1.4 -2.5 3.9 -3.9 3.9 -0.6 0 -1.1 0.9 -1.1 2 0 1.6 -0.7 2 -3.6 2 l-3.7 0 0.7 -5.6z"/>
  <path d="M1177 231 l0 -4 27.5 0 27.5 0 0 4 0 4 -27.5 0 -27.5 0 0 -4z"/>
  <path d="M1088.8 207.4 c-4.1 -25.1 -15.8 -37.1 -38.3 -39.3 l-6 -0.6 -0.3 -4.2 c-0.3 -3.7 0 -4.3 2 -4.7 17.5 -3.6 26.2 -7.2 32 -13.2 6.2 -6.7 8 -11.5 11.6 -32.4 0.8 -4.4 0.8 -4.5 4.7 -4.5 l4 0 0.7 7.5 c1.4 14.8 4.8 23.8 11.9 30.9 6.8 6.7 16.1 10.5 27.9 11.4 3.3 0.2 3.5 0.4 3.8 4.4 l0.3 4.2 -4.8 0.5 c-9.8 1.2 -18.3 4.7 -23.9 9.9 -8.9 8.1 -12.4 15.9 -14.8 32.2 l-1.1 8 -4 0.3 -4 0.3 -1.7 -10.7z"/>
  <path d="M681 183.5 c0 -3.5 0 -3.5 4.5 -3.5 4.5 0 4.5 0 4.5 3.5 0 3.5 0 3.5 -4.5 3.5 -4.5 0 -4.5 0 -4.5 -3.5z"/>
  <path d="M640.3 155.4 c0.6 -5.4 1.7 -6.4 7.5 -6.4 l4.2 0 0 4 c0 3.4 -0.4 4.1 -2.5 4.6 -1.4 0.3 -2.5 1 -2.5 1.5 0 0.5 -1.6 0.9 -3.6 0.9 l-3.7 0 0.6 -4.6z"/>
  <path d="M655 150.1 c0 -3.5 0.3 -3.9 3.1 -4.5 1.7 -0.3 5.1 -0.6 7.5 -0.6 l4.4 0 0 3.9 c0 3.5 -0.3 3.9 -3.1 4.5 -1.7 0.3 -5.1 0.6 -7.5 0.6 l-4.4 0 0 -3.9z"/>
  <path d="M685 149 l0 -4 5.5 0 5.5 0 0 4 0 4 -5.5 0 -5.5 0 0 -4z"/>
  <path d="M358.5 149.1 c-1.6 -0.4 -6.1 -2 -10 -3.6 -6.9 -2.7 -7.1 -2.8 -11.6 -1.1 -9.7 3.4 -14.9 1.1 -14.9 -6.5 0 -8.6 4.3 -11.3 17.5 -11.3 7.9 0 9.8 0.4 15 2.9 8.4 4 15.6 4 25 0.1 6.3 -2.7 8.1 -3 18 -3 10 0 11.8 0.3 19.3 3.2 9.8 3.7 14.2 4 22 1.1 16.2 -5.9 25.3 -6.4 38.6 -1.7 11.4 3.9 16 3.9 25.3 -0.1 5.9 -2.5 8.5 -3.1 14.6 -3.1 13.2 0 17.7 2.8 17.7 11 0 8.3 -1.6 8.9 -18.5 6.4 -3.2 -0.4 -5.3 0.1 -10.5 2.5 -5.8 2.8 -7.5 3.1 -15.7 3.1 -7.7 0 -10.5 -0.5 -17.3 -3 -4.5 -1.6 -9.7 -3 -11.7 -3 -2 0 -7.7 1.5 -12.7 3.2 -8.1 3 -10.2 3.3 -19.6 3.2 -8.9 0 -11.5 -0.4 -17.3 -2.7 -11 -4.3 -14.9 -4.4 -25.3 -0.8 -9.4 3.3 -22.1 4.8 -27.9 3.2z"/>
  <path d="M709.7 125.3 c-1.1 -1.1 -0.8 -7.3 0.4 -7.3 0.6 0 1.7 -0.7 2.5 -1.5 1 -1 3.5 -1.5 7.5 -1.5 l5.9 0 0 3.5 c0 3.1 -0.3 3.5 -4 4.6 -2.2 0.7 -4 1.6 -4 2.1 0 1 -7.4 1.1 -8.3 0.1z"/>
  <path d="M785 121 c0 -3.9 0.1 -4 3.5 -4 3.4 0 3.5 0.1 3.5 4 0 3.9 -0.1 4 -3.5 4 -3.4 0 -3.5 -0.1 -3.5 -4z"/>
  <path d="M728 114.1 c0 -4.5 0.2 -4.6 12.3 -5.7 l7.7 -0.7 0 4 0 3.9 -7 1.2 c-3.9 0.7 -8.4 1.2 -10 1.2 -2.8 0 -3 -0.2 -3 -3.9z"/>
  <path d="M764.8 117.3 c-2.5 -0.4 -2.8 -0.8 -2.8 -4.4 0 -4.3 0.6 -4.5 8.3 -3.3 3.5 0.6 3.7 0.8 3.7 4.5 0 3.8 -0.1 3.9 -3.2 3.8 -1.8 -0.1 -4.5 -0.4 -6 -0.6z"/>
  <path d="M754 112 c0 -3.9 0.1 -4 3.5 -4 3.4 0 3.5 0.1 3.5 4 0 3.9 -0.1 4 -3.5 4 -3.4 0 -3.5 -0.1 -3.5 -4z"/>
 </g>
 <g fill="#e1eff1">
  <path d="M0 512 l0 -512 768 0 768 0 0 512 0 512 -321 0 -321 0 0 -2.7 c0 -1.6 -1.1 -15.4 -2.5 -30.8 -1.4 -15.4 -2.5 -29.7 -2.5 -31.7 l0 -3.7 55.3 -0.3 c51.7 -0.3 55.4 -0.4 58.7 -2.2 9.7 -5.2 10.5 -7.4 13.5 -37.8 1.4 -13.9 2.7 -26.3 3 -27.5 0.6 -2.7 3.2 -3 3.8 -0.5 0.4 1.6 0.5 1.5 0.6 -0.1 0.1 -1.6 0.6 -1.7 3.4 -1.1 2.4 0.5 298.3 1 312.9 0.5 2.9 -0.1 4.8 -3.5 3 -5.3 -0.6 -0.6 -11.1 -1 -27.6 -0.9 l-26.6 0.1 -0.2 -311.7 -0.3 -311.8 -2.3 -5 c-3 -6.5 -7.5 -11.2 -13.7 -14.1 -4.8 -2.3 -5.9 -2.4 -27.7 -2.4 -17.2 0 -22.8 -0.3 -23.1 -1.2 -0.4 -1 -0.6 -1 -0.6 0 -0.1 0.7 -1.5 1.2 -3.5 1.2 -1.9 0 -3.7 -0.6 -3.9 -1.2 -0.4 -1 -0.6 -1 -0.6 0 -0.1 1.8 -42.7 1.8 -43.4 0 -0.4 -1 -0.6 -1 -0.6 0 -0.1 1.7 -13.7 1.7 -14.4 0 -0.4 -1 -0.8 -0.9 -1.8 0.2 -0.8 0.9 -3.2 2.2 -5.4 3 -7.4 2.5 -11 5.6 -15.3 13.5 l-2.7 5 -0.3 312.2 -0.2 312.2 -21.4 -0.1 -21.4 -0.2 -0.6 -3.6 c-0.3 -1.9 -0.6 -115.5 -0.6 -252.5 0 -242 -0.1 -249.1 -1.9 -253.2 -2.4 -5.1 -8.4 -11.2 -13.6 -13.8 -3.8 -1.9 -6.3 -2 -59 -2 -61.8 0 -58.6 -0.4 -66.6 7.6 -7.5 7.5 -8.4 10.8 -8.3 31.2 l0 17.8 -3.4 -0.3 c-3.3 -0.3 -3.4 -0.4 -8.2 -12.8 -16.9 -44.1 -29.6 -63.3 -50.2 -75.7 -9.2 -5.6 -40.2 -17.3 -45.8 -17.3 -1.1 0 -2.8 -0.4 -3.8 -0.9 -0.9 -0.5 -7.3 -1.8 -14.2 -3 -20.4 -3.5 -18 -2 -18 -11.5 0 -8.4 -1.5 -33.2 -2.6 -44 l-0.6 -6.1 4.3 -1.2 c7.7 -2.1 13.3 -6.5 16.4 -12.7 1.7 -3.4 2.6 -6.9 2.5 -9.1 -0.7 -9.7 -0.1 -14.8 2.3 -23.9 5.5 -20.2 2.1 -37.2 -10.7 -52.8 -12.5 -15.4 -35.9 -25.1 -56.6 -23.5 -8.1 0.6 -23.4 5 -25.7 7.3 -0.8 0.8 -2.1 1.4 -2.9 1.4 -2.7 0 -16.9 15.1 -19.5 20.7 -1.5 3.3 -3 5.2 -4.1 5.3 -1 0 -1.8 0.5 -1.8 1.1 0 0.7 -4.9 1 -16 0.7 -8.8 -0.1 -16.1 0.1 -16.3 0.5 -0.1 0.4 -3.4 1.9 -7.2 3.2 -3.8 1.4 -7.8 3.3 -8.9 4.4 -2 2 -2 2.1 0 4.2 3.9 4.3 17.2 9.5 31.6 12.4 4.6 0.9 9.5 2.2 11.1 2.8 3.1 1.4 3.1 1 1.7 19.7 -1.5 21.4 1.9 47.7 7.8 60.5 3.8 8 9.5 13.5 17.7 17.1 l6.6 2.9 -0.3 11.5 -0.3 11.5 -10.5 3.7 c-5.8 2 -11.5 3.7 -12.7 3.7 -1.2 0.1 -2.3 0.5 -2.5 0.9 -0.4 1.1 -10.6 5.2 -12.9 5.2 -0.9 0 -1.9 0.3 -2.1 0.8 -0.1 0.4 -2.8 1.8 -5.8 3.2 -3 1.3 -8.6 4.3 -12.3 6.5 -17.6 10.3 -26.1 21.7 -64.1 85.9 -12.7 21.3 -17.4 30.2 -16.7 30.9 2.7 2.7 1.2 8.3 -5.2 18.5 -5.9 9.7 -6.4 10.2 -9.7 10.2 -2.2 0 -10.3 -3 -22.7 -8.6 -16.2 -7.3 -19.3 -9 -19.3 -10.8 0 -1.7 -2.7 -3.5 -13.6 -9.1 -7.5 -3.8 -14.2 -7.4 -14.8 -8 -0.6 -0.5 -3.1 -2 -5.6 -3.3 -14.9 -7.5 -14.8 -7.4 -19.4 -15.2 -9.2 -15.5 -24.1 -30 -30.7 -30 -6.1 0 -5.9 2.3 -5.9 -84.7 0.1 -67.7 0.3 -79.1 1.5 -80.7 1.2 -1.6 1.5 -5.9 1.5 -21.8 l0 -19.7 49.6 -0.3 49.6 -0.3 2.9 -3.3 c3.2 -3.5 3.7 -7.3 1.4 -9.2 -2.3 -1.9 -1.9 -9.4 1.6 -32.2 l3.1 -20.2 -2.2 -1.8 c-2.1 -1.7 -8.4 -1.8 -113.5 -1.8 -70 0 -112.3 0.4 -113.9 1 -3.4 1.2 -3.3 2.2 0.4 26 3.4 21.7 3.6 26.2 1.5 28 -1.7 1.4 -2 6.2 -0.5 9.1 2.6 4.8 3.6 4.9 56 4.9 l49 0 0 20.3 c0 13.4 0.4 20.7 1.1 21.4 1.2 1.2 1.4 153.7 0.2 159.4 -0.5 2.5 -1 2.9 -3.8 2.9 -6.1 0 -11.5 6.5 -11.5 13.8 0 2.3 -1 5.8 -2.5 8.3 -1.7 3.1 -2.1 4.9 -1.5 5.9 1.5 2.3 1.2 8.4 -0.6 11.9 -1.4 2.9 -1.4 3.4 0 5.6 1.9 2.8 2.1 6.8 0.5 9.7 -2.4 4.4 4.4 11.8 13.9 14.9 2 0.7 4.2 1.8 4.9 2.5 1 1 1.3 22.8 1.3 108.3 0 94.5 -0.2 107.1 -1.5 107.1 -0.8 0 -1.5 -0.7 -1.5 -1.5 0 -0.8 -0.9 -1.5 -2 -1.5 -2.3 0 -2.6 1 -0.8 2.8 2.3 2.3 -3.2 1.3 -9.1 -1.5 l-5.6 -2.8 -44.2 -0.3 c-27.8 -0.2 -44.3 -0.6 -44.3 -1.2 0 -1.7 -13.7 -1.2 -14.3 0.4 -0.3 0.8 -2 1.7 -3.8 2.1 -1.8 0.4 -3.7 1.1 -4.3 1.6 -0.6 0.5 -2.5 2 -4.1 3.3 -1.7 1.3 -4.4 4.8 -6 7.8 l-3 5.3 -0.3 96.1 -0.2 96 -27.7 0.2 c-27.3 0.1 -29.2 0.3 -29.3 3.3 -0.1 3 3.6 3.1 97.2 3.1 51.9 0 95.1 -0.1 96.1 -0.1 1.3 -0.1 1.7 -1 1.7 -3.6 0 -3.7 2.5 -5 3.3 -1.7 0.4 1.6 0.5 1.6 0.6 0 0 -1 0.8 -1.8 1.6 -1.8 1.3 0 1.5 4.6 1.5 35.8 0 37.1 0.2 39.1 4.3 41.6 1.5 0.9 2.2 0.7 3.8 -1.3 1.9 -2.3 1.9 -6.5 1.9 -248.2 l0 -245.9 2.5 0 c7.3 0 12.2 2.1 19.1 8.3 3.8 3.3 7.7 6.8 8.8 7.7 1 0.8 7.7 6.5 14.9 12.7 l13.1 11.2 4.6 -0.6 c4.5 -0.5 5 -0.3 12.3 5.1 28.2 20.8 58.2 36.6 69.9 36.8 5.4 0.1 14.9 -4.9 22.5 -11.7 7.2 -6.4 19.7 -21.8 28.5 -34.8 7.4 -11 9.1 -12.7 12.7 -12.7 l2.8 0 0.6 35.3 c0.4 19.3 1.1 41.2 1.7 48.6 0.9 11.3 0.7 16.7 -0.9 34.5 -2 21.3 -4.2 50.4 -6.2 82.6 -0.6 9.6 -1.3 54.9 -1.6 100.5 -0.5 85.3 -0.1 108.5 3.7 194.5 1.1 23.9 2 43.8 2 44.3 0 0.4 -145.1 0.7 -322.5 0.7 l-322.5 0 0 -512z m623.3 374 l8.7 0 0 -3.5 0 -3.5 -7 0 -7 0 -0.2 -132.7 -0.3 -132.8 -2.2 -4 c-3.3 -6.2 -10.3 -12.1 -16.4 -13.9 -7.6 -2.3 -96.9 -2.4 -104.6 -0.1 -7 2.1 -12.3 6.3 -15.8 12.6 l-3 5.4 -0.5 133 -0.5 133 -16.5 0 -16.5 0 -0.3 3.2 c-0.3 3.1 -0.2 3.2 4 3.5 3.3 0.3 107.3 0.2 178.1 -0.2z m-327.3 -221 c0 -0.5 -0.7 -1 -1.5 -1 -0.8 0 -1.5 0.5 -1.5 1 0 0.6 0.7 1 1.5 1 0.8 0 1.5 -0.4 1.5 -1z m22 -1 c0 -0.6 -4 -1 -10 -1 -6 0 -10 0.4 -10 1 0 0.6 4 1 10 1 6 0 10 -0.4 10 -1z m-17.1 -249.3 c2.9 -21.3 11.9 -31.8 30.1 -34.9 7.4 -1.3 8.8 -2.4 4.3 -3.4 -15.9 -3.5 -20.3 -5.4 -25.6 -11.3 -5.7 -6.4 -7.4 -10.7 -10.1 -26.6 -1.5 -9.1 -1.7 -8.8 -3.9 5.2 -1.9 11.9 -4.8 18.3 -10.6 23.6 -5.3 4.8 -8.4 6.3 -17 8.2 -3.9 0.9 -7.1 2 -7.1 2.5 0 0.5 2.6 1.4 5.8 2 10.1 2.1 19.1 8 23.1 15 3.3 5.9 5.9 14.3 6.6 21.3 1.2 12 2.6 11.5 4.4 -1.6z m631.1 -11.2 c0 -1.4 -0.4 -2.5 -0.9 -2.5 -0.4 0 -0.6 1.1 -0.3 2.5 0.2 1.4 0.6 2.5 0.8 2.5 0.2 0 0.4 -1.1 0.4 -2.5z m-516 -22.5 c0 -0.5 -0.7 -1 -1.5 -1 -0.8 0 -1.5 0.5 -1.5 1 0 0.6 0.7 1 1.5 1 0.8 0 1.5 -0.4 1.5 -1z m5 -1.2 c0 -1 -0.6 -1.8 -1.4 -1.8 -0.7 0 -1.6 0.8 -1.8 1.8 -0.4 1.2 0.1 1.8 1.3 1.8 1.2 0 1.9 -0.7 1.9 -1.8z m529 -28 c0 -0.9 -1.3 -1 -3.4 -0.2 -0.8 0.3 -1.2 1.2 -0.9 1.9 0.4 1.1 0.9 1.2 2.4 0.2 1 -0.6 1.9 -1.5 1.9 -1.9z m-280 -33.8 c0.8 -0.5 1.2 -1.2 0.8 -1.5 -1 -1 -4.9 0.5 -4.3 1.6 0.8 1.1 1.6 1.1 3.5 -0.1z m10.5 -4.2 c2.7 -1.2 3.4 -2.8 1.1 -2.8 -2.1 0 -6.7 2.6 -5.9 3.3 0.9 1 1.8 0.9 4.8 -0.5z m13.3 -4.8 c1.1 0 1.3 -0.3 0.5 -1.1 -1.2 -1.2 -6.5 -0.1 -5.7 1.3 0.3 0.5 1.3 0.7 2.1 0.4 0.8 -0.3 2.2 -0.6 3.1 -0.6z m133.2 -9 c0 -0.5 -0.7 -1 -1.5 -1 -0.8 0 -1.5 0.5 -1.5 1 0 0.6 0.7 1 1.5 1 0.8 0 1.5 -0.4 1.5 -1z m-10 -2 c0 -0.5 -0.7 -1 -1.5 -1 -0.8 0 -1.5 0.5 -1.5 1 0 0.6 0.7 1 1.5 1 0.8 0 1.5 -0.4 1.5 -1z m326 -64 c0.8 -0.5 1.2 -1.2 0.8 -1.5 -1 -1 -4.9 0.5 -4.3 1.6 0.8 1.1 1.6 1.1 3.5 -0.1z m15 -3 c0 -0.5 -1.8 -1 -4 -1 -2.2 0 -4 0.5 -4 1 0 0.6 1.8 1 4 1 2.2 0 4 -0.4 4 -1z m15 0 c0 -0.5 -1.6 -1 -3.5 -1 -1.9 0 -3.5 0.5 -3.5 1 0 0.6 1.6 1 3.5 1 1.9 0 3.5 -0.4 3.5 -1z m10 0 c0 -0.5 -0.7 -1 -1.5 -1 -0.8 0 -1.5 0.5 -1.5 1 0 0.6 0.7 1 1.5 1 0.8 0 1.5 -0.4 1.5 -1z m4 0 c0 -0.5 -0.7 -1 -1.5 -1 -0.8 0 -1.5 0.5 -1.5 1 0 0.6 0.7 1 1.5 1 0.8 0 1.5 -0.4 1.5 -1z m30 0 c0 -0.5 -1.6 -1 -3.5 -1 -1.9 0 -3.5 0.5 -3.5 1 0 0.6 1.6 1 3.5 1 1.9 0 3.5 -0.4 3.5 -1z m8 0 c0 -0.5 -1.6 -1 -3.5 -1 -1.9 0 -3.5 0.5 -3.5 1 0 0.6 1.6 1 3.5 1 1.9 0 3.5 -0.4 3.5 -1z m4 0 c0 -0.5 -0.7 -1 -1.5 -1 -0.8 0 -1.5 0.5 -1.5 1 0 0.6 0.7 1 1.5 1 0.8 0 1.5 -0.4 1.5 -1z m-132.4 -24.6 c2.4 -16.2 6 -24.1 14.8 -32.1 5.6 -5.2 14.1 -8.7 23.9 -9.9 5.6 -0.6 6 -2.8 0.6 -3.1 -19.8 -1.4 -32.9 -11.5 -37.4 -28.8 -1.4 -5.1 -2.7 -13.6 -2.9 -18.2 -0.2 -4.1 -2 -3 -2.8 1.7 -3.6 20.9 -5.4 25.7 -11.6 32.4 -5.8 6 -14.4 9.6 -32 13.2 -4.2 0.9 -1.7 2.9 4.4 3.5 22.4 2.2 34.1 14.2 38.2 39.2 0.9 5.9 2.1 10.5 2.7 10.4 0.5 -0.2 1.5 -3.9 2.1 -8.3z m-448.6 -52.4 c0.8 -0.5 1.2 -1.2 0.8 -1.5 -1 -1 -4.9 0.5 -4.3 1.6 0.8 1.1 1.6 1.1 3.5 -0.1z m18.9 -4.5 c0.2 -0.3 0.2 -0.8 -0.2 -1.1 -0.9 -1 -8.7 0.7 -8.7 1.8 0 1 7.8 0.3 8.9 -0.7z m26.1 -0.5 c0 -0.5 -0.7 -1 -1.5 -1 -0.8 0 -1.5 0.5 -1.5 1 0 0.6 0.7 1 1.5 1 0.8 0 1.5 -0.4 1.5 -1z m27.3 -29 c0.8 0 0.8 -0.3 0 -1.1 -1.3 -1.3 -5.6 -0.2 -4.7 1.2 0.3 0.6 1.3 0.8 2.1 0.5 0.8 -0.3 2 -0.6 2.6 -0.6z m18.6 -6.6 c0.2 -0.2 0.2 -0.7 -0.2 -1 -0.9 -1 -7.7 0.5 -7.7 1.7 0 0.9 6.8 0.3 7.9 -0.7z m6.1 -1.4 c0 -0.5 -0.7 -1 -1.5 -1 -0.8 0 -1.5 0.5 -1.5 1 0 0.6 0.7 1 1.5 1 0.8 0 1.5 -0.4 1.5 -1z"/>
  <path d="M735.7 997.3 c0.8 -61.5 3.6 -134.9 6.8 -175.8 1.4 -17.4 2.2 -26.1 5.6 -58 1.1 -10 1.9 -12.4 4.2 -12.5 0.4 0 0.7 1.1 0.7 2.5 0 1.4 0.4 2.5 0.9 2.5 0.4 0 0.6 -1.1 0.3 -2.5 -0.3 -2 0 -2.5 1.6 -2.5 1.8 0 2.6 3.2 9.6 38.8 4.2 21.3 9.4 48.7 11.6 61 8.3 45.7 27 163.4 27 169.8 l0 3.4 -34.3 0 -34.4 0 0.4 -26.7z"/>
  <path d="M1020 877.9 l0 -4 3.8 0.3 c3.5 0.3 3.7 0.5 4 4.1 l0.3 3.7 -4 0 -4.1 0 0 -4.1z"/>
  <path d="M877.7 780.8 c-0.4 -6.6 -0.7 -16.1 -0.7 -21.1 0 -8.1 0.3 -9.4 3.2 -15 1.8 -3.3 6.8 -9.8 11.1 -14.4 6.7 -7 8.4 -8.3 11.1 -8.3 1.7 0 3.6 0.4 4.1 0.8 1.6 1.1 4.5 6 4.5 7.4 0 1.3 1.2 2.1 8 5.4 2.8 1.3 4.1 1.4 6.6 0.5 4.1 -1.5 7.3 -1.4 10.8 0.4 1.5 0.8 3.9 1.5 5.2 1.5 l2.4 0 0 26.5 c0 22.9 -0.2 26.5 -1.5 26.5 -0.8 0 -1.5 0.5 -1.5 1 0 0.6 -11.1 1 -31.3 1 l-31.4 0 -0.6 -12.2z m63.3 8.2 c0 -0.5 -0.7 -1 -1.5 -1 -0.8 0 -1.5 0.5 -1.5 1 0 0.6 0.7 1 1.5 1 0.8 0 1.5 -0.4 1.5 -1z"/>
  <path d="M874.6 729.8 c-0.3 -2.9 -1.5 -15.9 -2.6 -28.8 -2.9 -33.6 -5.5 -56.5 -10.1 -89 l-4 -28.5 0.6 -26 c0.3 -14.3 1 -32.3 1.6 -40 1.1 -15.7 4.6 -39.5 6 -40.9 0.5 -0.6 0.9 -2.3 0.9 -3.8 0 -2.5 0.3 -2.8 3.5 -2.8 3.2 0 3.5 0.2 3.5 3 0 1.7 0.4 3 1 3 0.5 0 1.2 1.1 1.6 2.5 0.3 1.4 1.2 2.9 2 3.3 4.7 2.6 18.9 50 26.8 89.7 5.4 26.8 7.3 39.8 5.8 40.3 -0.7 0.2 -1.2 1 -1.2 1.7 0 0.7 -0.5 1.5 -1.1 1.7 -1.4 0.5 0.4 10.1 6.7 35 2.4 9.8 4.4 19.2 4.4 20.9 0 2.4 -1.6 5.1 -6.5 11.1 -7.8 9.5 -9.9 15.3 -8.9 24.3 l0.6 6.1 -4.1 2.8 c-2.2 1.5 -7.6 6.6 -12.1 11.2 -6.5 6.7 -8.6 8.4 -11 8.4 -2.7 0 -2.9 -0.3 -3.4 -5.2z m6.4 -2 c0 -0.5 -0.7 -0.8 -1.5 -0.8 -1.5 0 -2 2.1 -0.8 3.3 0.7 0.7 2.3 -1.1 2.3 -2.5z m28 -117.8 c0 -0.5 -0.7 -1 -1.5 -1 -0.8 0 -1.5 0.5 -1.5 1 0 0.6 0.7 1 1.5 1 0.8 0 1.5 -0.4 1.5 -1z m-37 -132.5 c0 -0.8 -0.5 -1.5 -1.1 -1.5 -0.5 0 -0.7 -0.5 -0.3 -1.2 0.4 -0.7 0.3 -0.8 -0.4 -0.4 -1.7 1 -1.5 4.6 0.3 4.6 0.8 0 1.5 -0.7 1.5 -1.5z"/>
  <path d="M505 143.1 c0 -0.6 1.2 -1.7 2.8 -2.4 1.5 -0.6 3 -1.5 3.3 -2 0.9 -1.3 8.9 1.4 8.9 3 0 0.7 -1 1.3 -2.2 1.3 -1.3 0 -4.7 0.3 -7.5 0.6 -3.7 0.5 -5.3 0.3 -5.3 -0.5z"/>
 </g>
 <g fill="#b8d2d4">
  <path d="M636.7 895.1 c-1 -3.9 -0.8 -22.1 0.3 -22.1 0.6 0 1 2.6 1 6.5 0 3.7 0.4 6.5 1 6.5 0.6 0 1 2.5 1 5.5 0 4 -0.4 5.5 -1.4 5.5 -0.7 0 -1.6 -0.8 -1.9 -1.9z"/>
  <path d="M420.8 884.8 c-0.2 -8.2 -0.2 -8.2 -0.5 -1.7 l-0.4 6.7 -98.8 -0.2 c-96.4 -0.1 -98.9 -0.1 -101 -2 -1.5 -1.4 -2.1 -2.9 -1.9 -5 0.6 -6.1 0.9 -6.1 30.7 -6.1 23.4 0 27.1 -0.2 27.1 -1.5 0 -1.3 8.7 -1.5 73.5 -1.2 l73.5 0.2 0 9.5 c0 11.9 -1.9 12.9 -2.2 1.3z"/>
  <path d="M434.6 884.3 c-0.5 -7.1 -0.4 -9 0.9 -10.2 1.3 -1.4 1.5 -1.2 1.5 1.3 0 2.4 0.2 2.6 1.5 1.6 1 -0.8 5.9 -1.1 17.2 -0.9 13.3 0.3 15.8 0.1 16.1 -1.1 0.2 -1.3 9.8 -1.5 74.7 -1.5 58.9 0 74.5 0.3 74.5 1.3 0 0.8 2.1 1.2 7 1.2 l7 0 0 6.8 0 6.8 -98.5 0.2 -98.4 0.1 -0.4 -5.7 c-0.3 -5.5 -0.3 -5.4 -0.5 1.6 -0.1 3.9 -0.6 7.2 -1.1 7.2 -0.4 0 -1.1 -3.9 -1.5 -8.7z"/>
  <path d="M1019.5 884.8 c0.4 -4.5 1.3 -8.8 2 -9.5 1.1 -1 8.2 -1.3 32.4 -1.3 l31.1 0 0 -2.5 c0 -4.1 2.9 -3.1 3.6 1.3 l0.6 3.7 18.4 0 c14.3 0 18.4 -0.2 18.4 -1.2 0 -1 16 -1.3 81 -1.3 80.3 0 81 0 81 -2 0 -1.3 0.7 -2 2 -2 1.6 0 2 0.7 2 3.3 l0 3.3 25.7 -0.2 c14.8 -0.2 26.4 0.1 27.4 0.7 1 0.5 2.3 2.5 2.8 4.5 0.8 3.1 0.7 3.8 -1.2 5.7 l-2.2 2.2 -160.2 0.1 -160.3 0.1 -0.1 -3.1 c-0.1 -3.5 -0.5 -2.8 -1.4 2.7 -0.4 2.4 -1.1 3.7 -2.1 3.7 -1.4 0 -1.5 -1.1 -0.9 -8.2z"/>
 </g>
 <g fill="#b2764b">
  <path d="M906 613 c0 -0.5 0.7 -1.3 1.5 -1.7 1.3 -0.8 1.2 -2.7 -1 -15.3 -4.6 -26.5 -8.6 -44.3 -15 -67.5 -7 -25.1 -13.9 -44 -15.6 -42.9 -0.5 0.3 -0.9 0.3 -0.9 0 0 -0.2 -0.3 -1.1 -0.6 -1.9 -0.4 -1.2 2.6 -2.7 12.8 -6.7 47.7 -18.7 54 -20.5 55 -15.7 0.3 1.2 2.4 9.4 4.7 18.2 9.9 37.8 17.3 82.4 19.6 118.3 l0.7 10.2 -11.3 0 c-11.7 0 -26.9 1.8 -38.4 4.5 -7.6 1.7 -11.5 1.9 -11.5 0.5z"/>
  <path d="M570.5 544.5 c-12.8 -3.2 -41.5 -19.3 -64 -36 -4.5 -3.3 -8 -5.2 -9 -4.9 -3.4 1.4 -1.2 -4 4.3 -10.5 7.4 -8.5 11.1 -13.9 14.9 -21.6 3.3 -6.5 7.3 -17.6 7.3 -20 0 -0.9 0.9 -1.5 2.1 -1.5 1.4 0 1.9 0.5 1.6 1.4 -0.4 1 4.8 3.8 18.9 10.1 10.7 4.8 19.6 8.6 19.8 8.4 0.2 -0.2 3.1 -4.9 6.5 -10.3 5.7 -9.1 6.8 -12.6 4.1 -12.6 -0.5 0 -1 -0.4 -1 -1 0 -1.5 6.1 -1.2 7.9 0.3 0.9 0.8 6.6 4.4 12.6 8.2 6.1 3.7 18.8 12 28.3 18.2 17 11.4 19.5 13.8 15.9 16 -0.8 0.4 -4.1 4.9 -7.4 9.8 -3.3 5 -9.7 13.6 -14.2 19.2 -18.5 23.2 -32.3 30.8 -48.6 26.8z"/>
  <path d="M737.5 329.7 c-15.1 -3.9 -23.5 -12.6 -23.5 -24.4 0 -2.2 0.6 -3.6 2 -4.3 1.1 -0.6 2 -1.9 2 -2.9 0 -1.4 1 -2.1 3.8 -2.6 5.1 -0.9 17.1 -6.1 20.2 -8.6 2 -1.7 2.1 -2 0.5 -1.4 -1.1 0.4 -6.9 0.9 -12.8 1.2 -10.1 0.6 -10.8 0.5 -11.3 -1.4 -0.3 -1.2 -2.9 -2.9 -7 -4.7 -16 -7 -22.5 -21.1 -25.4 -55.1 -1 -11.9 -0.9 -19.1 0.6 -36.2 0.5 -5.4 0.3 -6.3 -1.1 -6.3 -1.7 0 -1.7 -1.8 0.2 -11.4 l0.5 -2.9 17.2 0.7 c22.1 0.8 45.1 3.5 66.2 7.7 l5.1 1 1.1 7.6 c2 12.8 6 19.4 10.1 16.5 5.5 -4 9.3 -5.2 15.9 -5.2 5.6 0 7.5 0.4 10.3 2.3 1.9 1.3 3.2 3 3 3.8 -0.2 0.8 -0.3 3.2 -0.1 5.4 0.8 10.8 0.3 14.3 -2.4 20 -3.1 6.3 -8.7 10.7 -16.3 12.8 -3.5 0.9 -4.2 1.4 -3.8 3.1 0.7 3.1 2.5 33.9 2.5 42.9 0 6.2 0.3 7.7 1.5 7.7 2.1 0 1.9 4.3 -0.4 8.9 -5.5 10.6 -16.5 20.3 -27.6 24.1 -7.6 2.7 -23.9 3.5 -31 1.7z"/>
 </g>
 <g fill="#31938f">
  <path d="M869 937.5 c0 -3.3 0.2 -3.5 3.5 -3.5 3.3 0 3.5 0.2 3.5 3.5 0 3.3 -0.2 3.5 -3.5 3.5 -3.3 0 -3.5 -0.2 -3.5 -3.5z"/>
  <path d="M867 919.5 c0 -3.3 0.2 -3.5 3.5 -3.5 3.3 0 3.5 0.2 3.5 3.5 0 3.3 -0.2 3.5 -3.5 3.5 -3.3 0 -3.5 -0.2 -3.5 -3.5z"/>
  <path d="M421 878.5 c0 -1.3 -8.7 -1.5 -72.5 -1.5 l-72.5 0 0.2 -96.2 0.3 -96.3 2.2 -4.1 c3.4 -6.3 6.6 -9.7 11.9 -12.4 l4.9 -2.5 53.9 -0.3 c60.7 -0.3 60.2 -0.3 67.8 6.9 2.3 2.1 4.2 3.9 4.4 3.9 0.1 0 0 -0.9 -0.3 -2 -0.5 -2.1 0.3 -2.5 2.3 -1.2 0.8 0.5 1.1 28.3 0.9 102.2 -0.2 55.8 -0.3 102.3 -0.4 103.3 -0.1 2.1 -3.1 2.3 -3.1 0.2z"/>
  <path d="M1021 873.8 c0 -3.5 0.7 -12.8 1.6 -20.8 1.5 -14.8 4.4 -44.9 4.4 -46.2 0 -0.5 1.3 -0.8 2.8 -0.8 3.9 0 5.2 -1.7 5.2 -6.7 0 -3.7 -0.4 -4.5 -2.6 -5.3 -1.4 -0.6 -4 -1 -5.7 -1 l-3.3 0 -1.2 -12.5 c-1.2 -13.1 -3.4 -21.1 -8.3 -30.9 -7.6 -15 -18.4 -27 -32.1 -36 -6 -3.9 -8.8 -6.3 -8.8 -7.6 0 -1.1 -1.4 -8.1 -3.1 -15.7 l-3.2 -13.8 1.3 -32.3 c0.7 -17.7 1 -32.6 0.6 -32.9 -0.4 -0.4 -2.1 -1.2 -3.9 -1.8 -3.3 -1 -5.1 -4.5 -2.3 -4.5 1.8 0 1.5 -5.3 -2 -35 -3.9 -33 -8.4 -56.6 -16.5 -87.5 -2.3 -8.8 -4.4 -17 -4.7 -18.2 -0.2 -1.3 -1.1 -2.3 -1.8 -2.3 -0.8 0 -1.4 -0.9 -1.4 -1.9 0 -1.3 1.3 -2.4 4 -3.5 2.2 -0.9 4 -1.9 4 -2.4 0 -0.4 -2.7 -8.4 -5.9 -17.7 -7.8 -22.4 -8.2 -23.5 -9.8 -26.5 -1.8 -3.4 -1.7 -9 0.1 -9 0.8 0 1.7 1.3 2.1 3 1.5 6.7 2 2.9 2 -13.8 0 -14.6 0.3 -18.4 1.7 -21.5 2.8 -6.2 7.3 -11.1 13 -14.3 l5.3 -2.9 57.5 0 57.5 0 5.7 2.8 c6.1 3 10.8 8 13.4 14.4 1.5 3.4 1.6 25.5 1.6 241.3 -0.1 130.6 -0.1 244.1 -0.1 252.3 l-0.1 14.7 -32.5 0 c-28.2 0 -32.5 0.2 -32.5 1.5 0 0.8 -0.4 1.5 -1 1.5 -0.6 0 -1 -2.7 -1 -6.2z"/>
  <path d="M472 745.8 c0 -86.3 0.4 -132.6 1 -135 1.9 -6.8 7 -13 13.4 -16.3 l6 -3 51.9 -0.3 c59.2 -0.3 59.4 -0.3 67.4 7.1 2.4 2.2 5.4 5.9 6.6 8.2 l2.2 4 0.3 133.3 0.2 133.2 -74.5 0 -74.5 0 0 -131.2z"/>
  <path d="M1126.2 564.8 l0.3 -312.3 3 -5.4 c1.6 -2.9 4.8 -6.8 7 -8.6 7.9 -6.5 7 -6.4 73.2 -6.6 59.4 -0.1 60 -0.1 65 2.1 6.2 2.6 11.5 7.9 14.5 14.5 l2.3 5 0.2 311.8 0.3 311.7 -83 0 -83 0 0.2 -312.2z"/>
  <path d="M860 852.5 c0 -3.3 0.2 -3.5 3.5 -3.5 3.3 0 3.5 0.2 3.5 3.5 0 3.3 -0.2 3.5 -3.5 3.5 -3.3 0 -3.5 -0.2 -3.5 -3.5z"/>
  <path d="M857 792.5 c0 -4.5 0 -4.5 3.5 -4.5 3.5 0 3.5 0 3.5 4.5 0 4.5 0 4.5 -3.5 4.5 -3.5 0 -3.5 0 -3.5 -4.5z"/>
  <path d="M870 791.5 c0 -3.3 0.2 -3.5 3.5 -3.5 3.3 0 3.5 0.2 3.5 3.5 0 3.3 -0.2 3.5 -3.5 3.5 -3.3 0 -3.5 -0.2 -3.5 -3.5z"/>
  <path d="M936 792.1 c0 -1.6 0.6 -2.1 2.5 -2.1 l2.5 0 0 -24.5 c0 -21.1 -0.2 -24.5 -1.5 -24.5 -2.1 0 -1.9 -2.9 0.3 -3.7 0.9 -0.3 3 -1.5 4.5 -2.6 2.2 -1.5 3.8 -1.8 7 -1.4 7.7 1.1 16.6 -4.7 19.7 -12.7 2.4 -6.3 14.3 -1.5 25.5 10.5 13.9 14.8 19.9 29.2 21.2 50.6 l0.6 11.3 -35 0 c-19.3 0 -37.8 0.3 -41.2 0.6 -5.8 0.7 -6.1 0.6 -6.1 -1.5z"/>
  <path d="M912.6 721.4 c-0.3 -0.9 -0.6 -2.9 -0.6 -4.5 0 -2.2 0.5 -2.9 1.9 -2.9 1.5 0 2.1 -1 2.6 -4 0.6 -3.8 0.9 -4 4.1 -4 l3.4 0 0 5.1 c0 4.2 -0.3 5.2 -2 5.6 -1.4 0.4 -2 1.4 -2 3.4 0 2.6 -0.3 2.9 -3.4 2.9 -2.2 0 -3.6 -0.6 -4 -1.6z"/>
  <path d="M844 507.5 c0 -3.3 0.2 -3.5 3.5 -3.5 3.3 0 3.5 0.2 3.5 3.5 0 3.3 -0.2 3.5 -3.5 3.5 -3.3 0 -3.5 -0.2 -3.5 -3.5z"/>
  <path d="M838 492.5 c0 -3.3 0.2 -3.5 3.5 -3.5 3.3 0 3.5 0.2 3.5 3.5 0 3.3 -0.2 3.5 -3.5 3.5 -3.3 0 -3.5 -0.2 -3.5 -3.5z"/>
  <path d="M641 456.5 l0 -6.5 4 0 4 0 0 4.9 c0 7 -0.6 8.1 -4.6 8.1 l-3.4 0 0 -6.5z"/>
  <path d="M640 439.5 c0 -3 0.3 -3.5 2.4 -3.5 2.1 0 2.4 -0.6 3 -5.2 1 -9 0.9 -9.8 -1.8 -9.8 -1.3 0 -3.8 -0.3 -5.5 -0.6 -3 -0.6 -3.1 -0.8 -3.1 -6 l0 -5.4 3.5 0 c2.4 0 3.5 0.5 3.5 1.5 0 0.8 0.9 1.5 2 1.5 1.7 0 2 0.7 2 4.5 0 4.5 0 4.5 3.5 4.5 3.9 0 4 0.2 2.9 9.8 -0.6 4.6 -0.9 5.2 -3 5.2 -2.1 0 -2.4 0.5 -2.4 3.5 0 3.3 -0.2 3.5 -3.5 3.5 -3.3 0 -3.5 -0.2 -3.5 -3.5z"/>
  <path d="M854 439.5 c0 -3.3 0.2 -3.5 3.5 -3.5 3.3 0 3.5 0.2 3.5 3.5 0 3.3 -0.2 3.5 -3.5 3.5 -3.3 0 -3.5 -0.2 -3.5 -3.5z"/>
  <path d="M426 429.5 c0 -3.3 0.2 -3.5 3.5 -3.5 3.3 0 3.5 0.2 3.5 3.5 0 3.3 -0.2 3.5 -3.5 3.5 -3.3 0 -3.5 -0.2 -3.5 -3.5z"/>
  <path d="M826 424.5 c0 -3.3 0.2 -3.5 3.5 -3.5 3.3 0 3.5 0.2 3.5 3.5 0 3.3 -0.2 3.5 -3.5 3.5 -3.3 0 -3.5 -0.2 -3.5 -3.5z"/>
  <path d="M419 409.5 c0 -3.3 0.2 -3.5 3.5 -3.5 3.3 0 3.5 0.2 3.5 3.5 0 3.3 -0.2 3.5 -3.5 3.5 -3.3 0 -3.5 -0.2 -3.5 -3.5z"/>
  <path d="M442 407.5 c0 -3.3 0.2 -3.5 3.5 -3.5 3.3 0 3.5 0.2 3.5 3.5 0 3.3 -0.2 3.5 -3.5 3.5 -3.3 0 -3.5 -0.2 -3.5 -3.5z"/>
  <path d="M639 401.5 c0 -1.6 -0.6 -2.5 -1.5 -2.5 -1 0 -1.5 -1.1 -1.5 -3.5 0 -2.4 0.5 -3.5 1.5 -3.5 0.8 0 1.5 -0.7 1.5 -1.5 0 -1 1.1 -1.5 3.5 -1.5 l3.5 0 0 7.5 0 7.5 -3.5 0 c-3.1 0 -3.5 -0.3 -3.5 -2.5z"/>
  <path d="M683 382.5 c0 -4.5 0 -4.5 3.5 -4.5 3.5 0 3.5 0 3.5 4.5 0 4.5 0 4.5 -3.5 4.5 -3.5 0 -3.5 0 -3.5 -4.5z"/>
  <path d="M823 376.5 c0 -3.3 0.2 -3.5 3.5 -3.5 3.3 0 3.5 0.2 3.5 3.5 0 3.3 -0.2 3.5 -3.5 3.5 -3.3 0 -3.5 -0.2 -3.5 -3.5z"/>
  <path d="M657 373.5 c0 -3.3 0.2 -3.5 3.5 -3.5 3.3 0 3.5 0.2 3.5 3.5 0 3.3 -0.2 3.5 -3.5 3.5 -3.3 0 -3.5 -0.2 -3.5 -3.5z"/>
  <path d="M663 341.5 c0 -3.3 0.2 -3.5 3.5 -3.5 3.3 0 3.5 0.2 3.5 3.5 0 3.3 -0.2 3.5 -3.5 3.5 -3.3 0 -3.5 -0.2 -3.5 -3.5z"/>
 </g>
 <g fill="#117070">
  <path d="M883.8 960 c-5.1 -1.5 -9.8 -5.1 -12.3 -9.3 -2.1 -3.8 -2.8 -7.6 -5.9 -37.2 -5.1 -47.5 -9.6 -93.4 -9.6 -97.6 0 -3.5 -0.2 -3.7 -4.1 -4.2 -2.3 -0.3 -4.7 -1 -5.3 -1.7 -0.6 -0.6 -1.2 -5 -1.4 -9.8 -0.5 -11.8 0.2 -12.6 10.6 -13 l7.9 -0.4 0.7 4.8 c1 7.3 2.6 11.4 4.2 11.4 1.3 0 1.5 -1.4 1.2 -7.7 l-0.3 -7.8 5.8 -0.3 c4.6 -0.2 5.7 0 5.7 1.2 0 1.3 3.9 1.6 29.8 1.8 16.3 0.2 29.8 0.1 29.9 -0.2 0.2 -0.3 16.9 -0.4 37.3 -0.2 33 0.3 37 0.2 37 -1.2 0 -1.3 1.2 -1.6 5.5 -1.6 4.2 0 5.5 0.3 5.5 1.5 0 1 1 1.5 3.4 1.5 1.9 0 4.6 0.4 6 1 2.5 0.9 2.6 1.3 2.6 8.3 0 8 -0.9 9.7 -5.2 9.7 -1.6 0 -2.8 0.6 -2.8 1.3 0 0.6 -0.7 7.7 -1.5 15.7 -2.7 28.3 -8.5 87.7 -10 102.3 -1.9 18.5 -3.7 22.6 -12 27.1 -3.9 2.1 -5 2.1 -59.2 2.4 -47.7 0.2 -55.3 0.5 -55.3 1.7 0 1.7 -3.7 1.9 -8.2 0.5z"/>
  <path d="M277.3 869 c0 -4.7 0.2 -6.6 0.4 -4.2 0.2 2.3 0.2 6.1 0 8.5 -0.2 2.3 -0.4 0.4 -0.4 -4.3z"/>
  <path d="M1087.5 625.5 c0 -138.6 0.1 -195.2 0.2 -125.7 0.2 69.5 0.2 182.9 0 252 -0.1 69.1 -0.2 12.3 -0.2 -126.3z"/>
  <path d="M1290.5 566 c0 -171.3 0.1 -241.4 0.2 -155.8 0.2 85.7 0.2 225.9 0 311.5 -0.1 85.7 -0.2 15.6 -0.2 -155.7z"/>
  <path d="M277.3 844 c0 -4.1 0.2 -5.8 0.4 -3.7 0.2 2 0.2 5.4 0 7.5 -0.2 2 -0.4 0.3 -0.4 -3.8z"/>
  <path d="M277.3 805.5 c0 -2.2 0.2 -3 0.4 -1.7 0.2 1.2 0.2 3 0 4 -0.3 0.9 -0.5 -0.1 -0.4 -2.3z"/>
  <path d="M277.3 773.5 c0 -3.3 0.2 -4.5 0.4 -2.7 0.2 1.8 0.2 4.5 0 6 -0.2 1.5 -0.4 0 -0.4 -3.3z"/>
  <path d="M277.3 755.5 c0 -2.2 0.2 -3 0.4 -1.7 0.2 1.2 0.2 3 0 4 -0.3 0.9 -0.5 -0.1 -0.4 -2.3z"/>
  <path d="M277.3 745 c0 -2.5 0.2 -3.5 0.4 -2.2 0.2 1.2 0.2 3.2 0 4.5 -0.2 1.2 -0.4 0.2 -0.4 -2.3z"/>
  <path d="M933.9 739.2 c-1.2 -1.9 -1.5 -1.9 -4 -0.6 -3.7 1.9 -10.3 1.8 -14.5 -0.2 -4.2 -2 -9.1 -7.7 -10 -11.6 -0.6 -2.8 -0.7 -2.9 -3 -1.3 -2.3 1.5 -2.4 1.5 -2.4 -1.2 0 -2.4 0.9 -3.4 5.4 -6.1 3 -1.7 6.6 -3.2 8 -3.2 2.4 0 2.6 -0.4 2.6 -4 0 -2.2 -0.3 -4 -0.7 -4 -0.5 0 -2.6 1.1 -4.8 2.5 -2.5 1.5 -5.5 2.4 -8 2.5 -2.8 0 -3.6 -0.3 -2.6 -0.9 1.1 -0.7 1.4 -2.6 1.2 -7 -0.4 -9.6 1.9 -15.8 9.4 -24.9 l6.6 -8 -4.5 -17.9 c-2.5 -9.8 -5.5 -22.7 -6.7 -28.7 -2.5 -13 -2.7 -12.6 8.4 -15.1 23.7 -5.4 52.5 -6 57.4 -1.2 0.7 0.8 0.7 3.7 -0.8 39.2 l-1.1 26 3.1 13.8 c1.7 7.6 3.1 14.7 3.1 15.7 0 1.1 0.9 2.5 2 3.2 2.1 1.4 2.5 5 1.4 11.9 -0.5 2.9 -1 3.6 -2.5 3.2 -1.3 -0.4 -2.2 0.2 -2.9 2.2 -2 5.2 -5.2 8.5 -10.7 11.2 -6 2.8 -11.9 3.8 -12.8 2.2 -0.4 -0.5 -1.9 0 -3.7 1.2 -1.6 1.2 -4.9 2.4 -7.3 2.7 -3.6 0.4 -4.6 0.1 -5.6 -1.6z"/>
  <path d="M277.4 719.5 c0 -8.2 0.2 -11.5 0.3 -7.2 0.2 4.3 0.2 11 0 15 -0.1 4 -0.3 0.5 -0.3 -7.8z"/>
  <path d="M277.3 691 c0 -2.5 0.2 -3.5 0.4 -2.2 0.2 1.2 0.2 3.2 0 4.5 -0.2 1.2 -0.4 0.2 -0.4 -2.3z"/>
  <path d="M421.2 673.9 c-0.2 -2.6 0.1 -3.8 0.8 -3.4 1.1 0.7 1.4 7.5 0.3 7.5 -0.5 0 -0.9 -1.8 -1.1 -4.1z"/>
  <path d="M476.8 603.4 c1.2 -2.2 7 -8 7.4 -7.3 0.2 0.2 -1.7 2.4 -4.1 4.8 -2.4 2.5 -3.9 3.6 -3.3 2.5z"/>
  <path d="M494.8 592.3 c1.2 -0.2 3.2 -0.2 4.5 0 1.2 0.2 0.2 0.4 -2.3 0.4 -2.5 0 -3.5 -0.2 -2.2 -0.4z"/>
  <path d="M542.8 592.3 c1.7 -0.2 4.7 -0.2 6.5 0 1.7 0.2 0.3 0.4 -3.3 0.4 -3.6 0 -5 -0.2 -3.2 -0.4z"/>
  <path d="M554.8 592.3 c1.2 -0.2 3.2 -0.2 4.5 0 1.2 0.2 0.2 0.4 -2.3 0.4 -2.5 0 -3.5 -0.2 -2.2 -0.4z"/>
  <path d="M564.8 592.3 c1.2 -0.2 3.2 -0.2 4.5 0 1.2 0.2 0.2 0.4 -2.3 0.4 -2.5 0 -3.5 -0.2 -2.2 -0.4z"/>
  <path d="M858.3 528.7 c-0.6 -0.7 -3.2 -3.2 -5.7 -5.7 -14.9 -14.4 -26.3 -62 -28.3 -117.7 -0.4 -10.4 -1 -17.3 -1.6 -17.3 -1.2 0 -0.3 -13.9 1.9 -28.8 2.9 -20.1 12.1 -55.2 14.4 -55.2 1.6 0 22.3 7.6 29.1 10.7 18.1 8.3 30.7 20.9 42.2 42.3 5.2 9.7 15.3 33.1 18.7 43.5 1.3 3.9 2.6 7.5 3 8 0.4 0.6 1.3 2.6 1.9 4.5 10 28.4 13.9 40 13.3 40 -0.4 0 -0.1 0.4 0.7 0.9 0.8 0.5 1.1 1.5 0.8 2.3 -0.5 1.5 -3.6 2.8 -41.2 17.2 -12.1 4.6 -24.3 9.3 -27.2 10.4 l-5.2 2.1 -2.3 -6.4 c-1.3 -3.7 -2.5 -5.9 -2.9 -5.2 -1.2 2 -5.8 31.5 -6.4 40.7 -1 15 -1.8 17.1 -5.2 13.7z"/>
  <path d="M474.8 491.4 c-10.1 -8.7 -20.5 -17.8 -23.3 -20.2 -2.7 -2.5 -6.3 -4.9 -7.9 -5.5 l-2.8 -1 0.6 -8.6 c0.4 -4.7 0.9 -12.6 1.2 -17.6 0.3 -4.9 1 -9.4 1.5 -9.9 0.5 -0.6 0.9 -1.9 0.9 -3 0 -1.9 -0.1 -1.8 -1.7 0.4 -1.3 1.9 -1.7 4 -1.4 8.6 0.2 5.5 0 6.3 -2 7.8 -2 1.3 -2.2 2.3 -2 7.5 0.3 8.5 -3.3 13.1 -10.4 13.1 -2 0 -2.5 0.5 -2.5 2.5 0 1.8 -0.5 2.5 -2 2.5 -1.7 0 -2 -0.7 -2 -3.9 0 -3.8 -0.1 -3.9 -5.8 -5.9 -6.5 -2.4 -12.1 -6.2 -13.9 -9.5 -1.4 -2.6 -1.7 -9.6 -0.4 -11.6 0.6 -1 0.5 -2.2 -0.5 -3.5 -1.9 -2.7 -1.8 -8 0.2 -12.1 1.2 -2.5 1.3 -3.8 0.5 -5.4 -1.7 -3 -1.3 -6.7 1 -11.4 1.2 -2.3 2.3 -6.1 2.5 -8.4 0.6 -8.2 6 -14.2 12.8 -14.5 2.9 -0.1 3.6 -0.5 3.7 -2.2 0 -1.2 0.3 -1.5 0.6 -0.8 0.2 0.6 1.9 1.2 3.8 1.2 3 0 3.3 0.3 3.9 4.2 l0.7 4.1 2.9 -2.8 c2.6 -2.5 3.3 -2.7 5.5 -1.7 1.4 0.7 3.7 1.2 4.9 1.2 6.1 0 21.4 15.2 30.1 29.9 4.9 8.3 4 7.7 40.3 26.8 l14.3 7.5 -0.7 3.6 c-2.9 16.4 -16.9 40.1 -30.1 50.9 l-4.1 3.4 -18.4 -15.7z"/>
  <path d="M642.9 488.3 c0 -3.3 -0.1 -3.5 -0.9 -1.5 l-1 2.3 -5.2 -3.9 c-6.5 -4.7 -27.6 -18.6 -42.3 -27.8 -6 -3.7 -12.5 -7.8 -14.3 -9 -1.8 -1.3 -3.7 -2.4 -4.3 -2.6 -0.6 -0.2 7.5 -15 18.1 -32.8 36.8 -62.1 45.6 -74.5 59.5 -84.5 5.7 -4 15.5 -9.4 21.2 -11.6 l2.5 -0.9 -0.5 5.7 c-0.3 3.2 -1.3 8.3 -2.2 11.3 -3.1 11 -6.5 27.1 -8.5 40.5 -1.1 7.5 -2 13.8 -2 14 0 0.2 -1 0.5 -2.2 0.7 -2.2 0.3 -2.4 1.4 -7 35.3 -2.6 19.3 -4.7 37.2 -4.7 39.8 -0.1 4 -0.5 5 -2.1 5.4 -1.3 0.4 -1.9 1.1 -1.6 2.2 1.2 4.3 1.8 17.1 0.7 17.1 -0.6 0 -1.1 0.6 -1.1 1.4 0 0.8 -0.4 1.8 -1 2.1 -0.6 0.4 -1 -0.9 -1.1 -3.2z m3.1 -33 c0 -1.3 -0.4 -2.3 -0.9 -2.3 -0.5 0 -0.9 1.6 -0.8 3.5 0.1 3.8 1.7 2.6 1.7 -1.2z"/>
  <path d="M933.4 387 c0 -7.4 0.1 -10.5 0.3 -6.7 0.2 3.7 0.2 9.7 0 13.5 -0.2 3.7 -0.3 0.6 -0.3 -6.8z"/>
  <path d="M682.5 379.8 c1.5 -18.7 6.6 -50 10.7 -66.3 l1.3 -5 10.5 -3.7 c5.8 -2 10.8 -3.7 11.1 -3.7 0.4 -0.1 0.9 2.1 1.3 4.8 2.9 21.6 38.2 29 60.4 12.7 6.3 -4.7 14.3 -14.6 16.4 -20.2 1.1 -3.1 1.6 -3.4 3.8 -2.9 1.4 0.4 7.2 1.6 12.9 2.6 5.7 1 10.6 2.1 10.9 2.4 0.3 0.2 -1.8 6.4 -4.6 13.7 -8.1 21.5 -14.9 47.7 -17.7 68.6 l-0.7 5.2 -58.5 0 -58.5 0 0.7 -8.2z"/>
  <path d="M1283.7 242 c-0.9 -1.1 -1.3 -2 -0.9 -2 0.4 0 1.5 0.9 2.5 2 0.9 1.1 1.3 2 0.9 2 -0.4 0 -1.5 -0.9 -2.5 -2z"/>
  <path d="M1236.3 232.3 c1.5 -0.2 3.7 -0.2 5 0 1.2 0.2 0 0.4 -2.8 0.4 -2.7 0 -3.8 -0.2 -2.2 -0.4z"/>
  <path d="M1249.8 232.3 c3.4 -0.2 9 -0.2 12.5 0 3.4 0.2 0.6 0.3 -6.3 0.3 -6.9 0 -9.7 -0.1 -6.2 -0.3z"/>
  <path d="M808.5 192.4 c-22.7 -15.8 -65.8 -31.2 -103.5 -36.9 -6.3 -0.9 -12.1 -2 -12.9 -2.4 -2 -1 -2.6 -3.1 -0.9 -3.1 0.7 0 2.6 -2.8 4.2 -6.3 1.9 -4.1 5.2 -8.5 9.6 -12.9 14.8 -14.8 38.3 -21 62.4 -16.4 25.5 4.9 45.7 23 51.1 45.8 1.8 7.5 1.9 22.3 0.4 30.1 -1.4 6.9 -3 7.3 -10.4 2.1z"/>
  <path d="M419 185.5 c0 -1.3 -6.1 -1.5 -49 -1.5 -54.8 0 -53.8 0.1 -56.7 -6.7 -1.7 -4.2 -1 -11.4 1.2 -13.3 0.8 -0.7 1.5 -2.3 1.5 -3.6 l0 -2.4 113 0 113 0 0 2.9 c0 1.6 0.7 3.4 1.5 4.1 1 0.8 1.5 3.1 1.5 6.6 0 4.5 -0.5 5.9 -2.9 8.6 l-2.9 3.3 -49.6 0.3 c-42.9 0.2 -49.6 0.5 -49.6 1.7 0 1.2 -1.9 1.5 -10.5 1.5 -8.7 0 -10.5 -0.3 -10.5 -1.5z"/>
 </g>
 <g fill="#00373d">
  <path d="M641.6 1015.8 c-0.8 -11.3 -3.3 -71.9 -4.7 -113.1 -1.3 -40.2 -0.6 -195.6 1 -221.7 1.9 -29.9 4.1 -60.6 6 -82 1.3 -15.1 1.6 -23.1 1 -30.5 -0.5 -5.5 -1.1 -28.4 -1.4 -51 -0.4 -30.1 -1 -43.1 -2.1 -49 -0.8 -4.4 -1.8 -13.3 -2.1 -19.7 -0.6 -11.4 -0.5 -11.8 1.4 -11.8 1.9 0 2.1 0.8 2.8 14.5 0.4 8.1 1.1 14.2 1.6 13.9 0.5 -0.3 0.9 -2.6 1 -5.2 0 -2.6 2.1 -20.4 4.7 -39.7 4.6 -33.9 4.8 -35 7 -35.3 1.2 -0.2 2.2 -0.5 2.2 -0.7 0 -0.2 0.9 -6.5 2 -14 1.9 -13.2 5.1 -28.3 8.6 -41 3 -10.8 3 -10.9 0.5 -10.2 -6.2 1.6 1.7 -2.2 16.4 -8 10.7 -4.2 13.2 -4.8 11.6 -2.9 -2.6 3.1 -9.6 38.2 -12.1 60.1 -0.6 5.5 -1.2 11.5 -1.5 13.3 l-0.4 3.2 55.4 0 55.3 0 0.7 -5.2 c2.7 -20.4 8.9 -44.6 16.8 -66 3.9 -10.6 5.5 -13.8 6.9 -13.8 1.6 0 17.9 3.5 20.5 4.5 0.8 0.2 0.1 3.7 -2.3 11 -6 18.3 -10.5 40.5 -12.9 63.3 -0.4 3.7 -0.3 6.2 0.2 6.2 0.6 0 1.3 7.6 1.6 17.2 1.5 42.7 9.1 83.8 19.2 104.3 5.2 10.6 13.4 19.9 14.7 16.8 0.5 -1 0.6 11.7 0.4 28.2 l-0.5 30 3.9 28 c4.5 32.2 7.1 55.3 10 88.5 1.1 12.9 2.2 25.8 2.5 28.6 l0.6 5.1 10.2 -10.1 c7.7 -7.6 12.4 -11.3 19 -15 4.8 -2.7 8.7 -5.3 8.7 -5.9 0 -0.7 0.6 -0.5 1.4 0.3 1 1 1.6 4.2 1.8 9 0.3 7.4 0.3 7.5 -2.2 7.5 -7.3 0.2 -27.3 18.1 -33.9 30.4 l-3.4 6.4 0.8 18.1 0.7 18.1 -4.4 0 c-4.3 0 -4.3 0 -4 3.3 0.3 2.6 0 3.2 -1.6 3.2 -1.6 0 -2 -0.9 -2.6 -5.2 -1 -8.9 -0.7 -19.1 0.9 -24.8 2.1 -7.7 3.7 -16.1 3.2 -16.6 -0.6 -0.7 -6.2 16.9 -7.7 24 -0.8 3.8 -1 8.9 -0.5 13.9 0.6 7.3 0.5 7.9 -1.2 7.5 -1.1 -0.2 -1.9 -1.4 -2.1 -3.2 -0.3 -2.8 -0.5 -2.8 -5.4 -2.4 -6.7 0.7 -8.1 2.5 -7.6 10.1 0.3 3.1 1 6.3 1.7 7 0.9 0.9 21.3 1.3 90.6 1.5 l89.5 0.2 0 2.5 0 2.5 -85.5 0 c-67.7 0 -85.5 0.3 -85.5 1.3 0 2.1 5.9 60.7 9.6 95.2 3.2 29.7 3.8 33.4 6 37.2 2.6 4.5 8.6 8.6 14.2 9.8 1.7 0.4 3.2 1 3.2 1.3 0 0.4 1.1 13.3 2.5 28.7 1.4 15.4 2.5 29.9 2.5 32.3 l0 4.2 -47.7 0 -47.8 0 -4.4 -28.8 c-6.4 -42.4 -17.5 -110.2 -22.6 -138.7 -5.5 -30.5 -20.7 -107.7 -21.1 -107.2 -0.5 0.5 -5.2 43.9 -6.8 62.7 -4.2 48.8 -7.5 125.8 -7.7 179.5 0 14.9 -0.3 28.2 -0.6 29.8 l-0.5 2.7 -47.8 0 -47.8 0 -0.6 -8.2z m108.4 -266 c-0.5 -3 -3.9 -14.9 -3.9 -13.9 -0.2 2.9 2.3 14.1 3.1 14.1 0.4 0 0.8 -0.1 0.8 -0.2z"/>
  <path d="M424.3 958.6 l-2.8 -2.4 0 -247.8 0 -247.9 3.5 -0.5 c6.7 -1.2 10.6 -5.1 9.8 -10.1 -0.3 -2.1 -1.4 -2.7 -11.1 -5.1 -6 -1.5 -13 -3.8 -15.5 -5 l-4.7 -2.2 5 -0.4 c3 -0.2 9 0.5 14.8 1.9 8.9 2.1 10.1 2.2 12.5 0.8 3.4 -1.9 4.1 -6 1.4 -8.7 -1.1 -1.1 -4.1 -2.2 -7 -2.6 -8.8 -1.1 -25.8 -7.8 -24.6 -9.7 0.9 -1.6 4.3 -1 11.5 2.1 3.8 1.6 9.6 3.5 12.8 4.1 5.2 1.1 6.2 1.1 8.5 -0.4 5.5 -3.7 3.7 -11.6 -2.7 -11.8 -2.7 0 -2.9 -0.2 -1.2 -0.9 1.1 -0.4 3.3 -2.2 4.9 -3.9 1.7 -1.7 3.3 -3.1 3.7 -3.1 1.1 0 4.9 12.5 4.9 16.6 0 2.1 0.7 4.8 1.5 5.8 2.1 2.8 1.8 4.3 -0.7 4.2 -2.2 -0.1 -2.3 0.4 -2.9 8.9 -0.4 5 -1 11.7 -1.4 15.1 -0.8 6.1 -0.7 6.1 3.1 10.5 2.1 2.4 2.7 3.4 1.2 2.1 -1.4 -1.3 -4.1 -2.6 -5.9 -2.8 -1.9 -0.3 -4 -0.7 -4.6 -0.9 -1 -0.4 -1.3 49.2 -1.3 245.6 l0 246 -2.5 2.4 c-3.1 3.2 -6.6 3.2 -10.2 0.1z"/>
  <path d="M1008 953.7 c0 -0.2 1.5 -1.6 3.3 -3.3 l3.2 -2.9 -2.9 3.3 c-2.8 3 -3.6 3.7 -3.6 2.9z"/>
  <path d="M863.6 804.5 c-0.9 -2.3 -0.8 -2.5 0.9 -2.5 0.8 0 1.5 -0.9 1.5 -2 0 -1.6 0.7 -2 3.5 -2 3.3 0 3.5 0.2 3.5 3.5 0 2.3 -0.5 3.5 -1.4 3.5 -0.7 0 -2.7 0.3 -4.3 0.6 -2.3 0.4 -3.2 0.2 -3.7 -1.1z"/>
  <path d="M1015.5 790 c-0.1 -0.3 -0.6 -4.3 -1 -9 -0.9 -10.5 -2.7 -17.6 -6.5 -25.7 -5.8 -12.6 -15.7 -24.3 -26.5 -31.3 l-6.3 -4.1 0.9 -3.7 c0.5 -2 0.9 -5.2 0.9 -7 l0 -3.3 3.9 2.1 c16.9 9.5 31.8 27 39.4 46.3 3.1 7.8 5.5 21.1 5.3 29.8 l-0.1 6.1 -4.8 0.2 c-2.7 0.1 -5 -0.1 -5.2 -0.4z"/>
  <path d="M903 691.4 c0 -1.5 5.4 -9.7 7.6 -11.4 1.5 -1.1 1.4 -0.9 -0.3 1 -1.2 1.4 -3.3 4.5 -4.7 7 -1.4 2.5 -2.6 4 -2.6 3.4z"/>
  <path d="M862.3 514.5 c0 -2.2 0.2 -3 0.4 -1.7 0.2 1.2 0.2 3 0 4 -0.3 0.9 -0.5 -0.1 -0.4 -2.3z"/>
  <path d="M470.7 487.5 c-1.5 -1.4 -2.4 -2.5 -1.9 -2.5 0.5 0 1.9 1.1 3.2 2.5 3 3.2 2.3 3.2 -1.3 0z"/>
  <path d="M509 440.5 c-2.5 -1.3 -4.1 -2.4 -3.7 -2.5 1.1 0 8.7 3.9 8.7 4.5 0 0.7 0 0.7 -5 -2z"/>
  <path d="M851.7 431.3 c-1.6 -2.6 -3.5 -8.3 -2.8 -8.3 1 0 4.4 8 3.7 8.7 -0.2 0.2 -0.6 0.1 -0.9 -0.4z"/>
  <path d="M590.9 417.5 c1.7 -3.3 3.1 -5.1 3.1 -4 0 0.6 -1 2.1 -2.1 3.5 -1.3 1.7 -1.7 1.8 -1 0.5z"/>
  <path d="M470.6 412.5 c-0.9 -1.4 -2.3 -3.7 -3.2 -5.2 l-1.6 -2.8 2 2.4 c2.4 2.9 5.5 8.1 4.9 8.1 -0.3 0 -1.2 -1.1 -2.1 -2.5z"/>
  <path d="M423.6 408.9 c-1.4 -1.7 -2.6 -3.6 -2.6 -4.2 0 -0.7 1.4 -4.1 3 -7.5 2.4 -5.1 2.9 -7.2 2.4 -10.3 l-0.7 -3.9 -5.1 -0.1 c-2.8 -0.1 -3.9 -0.4 -2.4 -0.6 l2.8 -0.4 0.2 -77.6 c0.2 -61 0 -77.7 -0.9 -78.5 -1 -0.8 -1.3 -6.3 -1.3 -21.4 l0 -20.4 10.5 0 10.5 0 0 19.8 c0 15.9 -0.3 20.2 -1.5 21.8 -1.2 1.6 -1.4 12.9 -1.5 79.6 0 68.5 0.2 77.8 1.5 78.6 1.3 0.6 0.7 1.7 -3 5.5 -7.8 8.2 -10.3 15.6 -6.9 20.5 1.4 2 1.4 2.2 -0.5 2.2 -1 0 -3.1 -1.4 -4.5 -3.1z"/>
  <path d="M640.1 400.8 c0 -4.6 0.4 -9.2 0.9 -10.3 0.6 -1.3 0.9 1.4 0.8 7.8 0 5.3 -0.4 10 -0.9 10.3 -0.5 0.3 -0.9 -3.2 -0.8 -7.8z"/>
  <path d="M458 396.5 c-2.4 -2.5 -4.2 -4.5 -3.9 -4.5 0.3 0 2.5 2 4.9 4.5 2.4 2.5 4.2 4.5 3.9 4.5 -0.3 0 -2.5 -2 -4.9 -4.5z"/>
  <path d="M406 391.2 c0 -0.7 1.5 -2.7 3.3 -4.5 1.7 -1.8 2.2 -2.1 1.1 -0.7 -1.2 1.4 -2.6 3.4 -3.2 4.5 -0.6 1.1 -1.2 1.4 -1.2 0.7z"/>
  <path d="M618 372.5 c0 -0.5 1 -2.1 2.1 -3.5 1.3 -1.7 1.7 -1.8 1 -0.5 -1.7 3.3 -3.1 5.1 -3.1 4z"/>
  <path d="M639 341.7 c0 -0.2 1.5 -1.6 3.3 -3.3 l3.2 -2.9 -2.9 3.3 c-2.8 3 -3.6 3.7 -3.6 2.9z"/>
  <path d="M891.4 331.8 l-2.9 -3.3 3.3 2.9 c1.7 1.7 3.2 3.1 3.2 3.3 0 0.8 -0.8 0.1 -3.6 -2.9z"/>
  <path d="M871.8 317.9 c-2.1 -1.1 -3.8 -2.2 -3.8 -2.4 0 -0.3 1.8 0.4 4 1.5 2.2 1.1 4 2.3 4 2.5 0 0.7 0 0.7 -4.2 -1.6z"/>
  <path d="M718 291.5 l0 -8.5 5.8 0.6 c7 0.8 19.6 -1.5 28.3 -5 3.5 -1.4 6.5 -2.3 6.7 -2.1 0.3 0.3 -2.5 3.4 -6.1 6.9 -7.2 7.1 -16.7 12.3 -27.3 15 -3.4 0.9 -6.5 1.6 -6.8 1.6 -0.3 0 -0.6 -3.8 -0.6 -8.5z"/>
  <path d="M778.5 204.6 c-2.6 -2.6 -5 -9.6 -6 -17.9 l-0.7 -5.6 -5.2 -1 c-19.3 -3.9 -42.8 -6.7 -63.2 -7.7 l-14.1 -0.7 -0.6 2.4 c-0.4 1.3 -0.7 3.6 -0.7 5.1 0 1.5 -0.5 3 -1 3.3 -0.6 0.3 -5.7 -0.3 -11.5 -1.5 -33.6 -6.8 -46 -17.9 -28.8 -26 7.6 -3.6 16.7 -5 32 -5 12.4 -0.1 14.4 -0.3 15.3 -1.8 0.9 -1.5 1 -1.5 0.8 0.3 -0.2 1.6 0.4 2.1 2.7 2.3 13.9 1.4 46.1 8.8 63 14.5 21.9 7.5 45.4 19 57.3 28.3 0.4 0.2 -1.5 7.5 -2.9 11.2 l-1 2.5 -1.5 -2.1 c-4.7 -6.8 -14.6 -6.8 -23.3 -0.1 -3.3 2.6 -7.7 2.4 -10.6 -0.5z"/>
  <path d="M537.1 182.7 c0.2 -0.2 1.8 -1.1 3.4 -2.1 l3 -1.7 -2.4 2 c-1.3 1.2 -2.8 2.1 -3.4 2.1 -0.6 0 -0.8 -0.1 -0.6 -0.3z"/>
  <path d="M819.3 175.5 c0 -3.3 0.2 -4.5 0.4 -2.7 0.2 1.8 0.2 4.5 0 6 -0.2 1.5 -0.4 0 -0.4 -3.3z"/>
  <path d="M313.3 171.5 c0 -3.3 0.2 -4.5 0.4 -2.7 0.2 1.8 0.2 4.5 0 6 -0.2 1.5 -0.4 0 -0.4 -3.3z"/>
  <path d="M316 161.4 c0 -0.1 -1.6 -10.4 -3.5 -23 -2 -12.6 -3.3 -23.9 -3 -25.2 0.3 -1.2 1.7 -2.7 3.1 -3.2 1.6 -0.6 45.9 -1 117 -1 l114.5 0 2.4 2.4 c1.3 1.3 2.2 3.2 2 4.2 -0.2 1.1 -1.8 11.8 -3.6 23.9 l-3.2 22 -112.9 0 c-62 0 -112.8 -0.1 -112.8 -0.1z m67.5 -18.6 c7.9 -2.7 9.9 -3 16.5 -2.5 4.7 0.3 10.1 1.6 14.5 3.3 10.2 4 19.1 3.9 31.1 -0.4 12.2 -4.3 19.2 -4.3 30.4 -0.2 5.7 2.1 9.9 3 14.2 3 4.4 0 7.7 -0.8 12.8 -3 7.3 -3.2 15.3 -4 20.6 -1.9 3.9 1.4 7.2 0.4 8 -2.6 0.9 -3.6 -1.7 -6.9 -6.4 -8.3 -6.5 -2 -11.8 -1.4 -19.5 2 -10.2 4.4 -18.8 4.4 -31.3 0 -5 -1.8 -10.7 -3.2 -12.5 -3.2 -4.1 0 -12.3 2 -20.1 4.9 -8.8 3.2 -17.7 2.9 -28 -1.1 -11.4 -4.3 -21.2 -4.4 -31.3 -0.2 -6 2.5 -8.3 2.9 -16 2.9 -7.8 -0.1 -9.8 -0.5 -15 -3 -7.1 -3.4 -16 -3.9 -21.2 -1.2 -8.4 4.4 -5.5 13.8 3.1 10.2 5.2 -2.2 10.9 -1.8 18.4 1.2 12.7 5.1 17 5.1 31.7 0.1z"/>
  <path d="M802 133.3 l-5.5 -5.8 5.8 5.5 c3.1 3 5.7 5.6 5.7 5.7 0 0.8 -1 -0.1 -6 -5.4z"/>
  <path d="M784.8 121.4 c-3.9 -2.1 -3.5 -2.8 0.5 -0.8 3.7 1.9 4.4 2.4 3.1 2.4 -0.5 -0.1 -2.1 -0.8 -3.6 -1.6z"/>
  <path d="M749.3 113.3 c0.9 -0.2 2.5 -0.2 3.5 0 0.9 0.3 0.1 0.5 -1.8 0.5 -1.9 0 -2.7 -0.2 -1.7 -0.5z"/>
 </g>
 <g fill="#002225">
  <path d="M736.9 999.5 c-0.2 -13.7 0 -25.3 0.4 -25.6 0.4 -0.3 0.7 -9.6 0.5 -20.7 -0.2 -11.1 0.1 -20.2 0.5 -20.2 0.4 0 0.7 -6.8 0.5 -15 -0.2 -8.3 0.1 -15 0.5 -15 0.5 0 0.7 -4.7 0.5 -10.5 -0.2 -5.8 0.1 -10.5 0.5 -10.5 0.5 0 0.7 -4.5 0.5 -10 -0.2 -5.5 0.1 -10 0.6 -10 0.4 0 0.6 -3.8 0.5 -8.5 -0.2 -4.7 -0.1 -8.5 0.2 -8.5 0.8 0 3.3 -37.6 2.5 -38.8 -0.3 -0.6 -0.2 -1.2 0.4 -1.4 0.6 -0.2 1.1 -4.6 1.3 -10 0.1 -5.4 0.5 -9.8 0.8 -9.8 1.5 0 2 -16 0.7 -21.4 -0.7 -3.1 -1.5 -5.6 -1.9 -5.6 -0.3 0 -0.4 -1.1 -0.1 -2.5 0.2 -1.5 0 -2.5 -0.7 -2.5 -0.7 0 -1 -0.4 -0.6 -0.9 0.6 -1.1 -1.7 -15.1 -2.5 -15.1 -0.4 0 -0.5 -1.3 -0.2 -3 0.2 -1.6 0 -3 -0.4 -3 -0.5 0 -1 -2.4 -1.1 -5.2 -0.1 -2.9 -0.6 -5.4 -1.1 -5.6 -0.5 -0.1 -0.7 -1.4 -0.4 -2.7 0.2 -1.4 0 -2.5 -0.4 -2.5 -0.5 0 -1 -2.5 -1.1 -5.7 -0.1 -3.1 -0.6 -5.9 -1 -6.2 -0.4 -0.3 -0.9 -3.1 -1 -6.1 -0.2 -3 -0.7 -5.6 -1.1 -5.8 -0.5 -0.1 -0.6 -1.6 -0.4 -3.2 0.3 -1.9 0 -3 -0.7 -3 -0.7 0 -0.9 -0.5 -0.6 -1 1.3 -2.1 -0.6 -9.2 -2.6 -9.7 -1 -0.3 -1.9 -0.9 -1.9 -1.4 0 -1.5 1.6 -1 4.3 1.4 2.3 1.9 3.6 5.7 8.6 24.3 3.3 12.1 7.4 28.2 9.1 35.8 3.4 14.8 3.4 12.5 0.5 35.6 -0.7 4.8 -2.3 20.4 -4 38.5 -1.3 13.5 -3.6 50.9 -5 81.5 -0.3 6.3 -0.7 14.2 -1 17.5 -0.2 3.3 -0.7 19.5 -1.1 36 -0.3 16.5 -0.9 41.5 -1.3 55.5 l-0.7 25.5 -0.5 -25z"/>
  <path d="M801.6 1021.8 c-1.2 -6.1 -1.5 -9.2 -0.7 -7.8 1 1.8 2.3 10 1.6 10 -0.2 0 -0.7 -1 -0.9 -2.2z"/>
  <path d="M896.2 1020.8 c-0.1 -2.1 -0.6 -3.8 -1.1 -3.8 -0.5 0 -0.7 -0.9 -0.4 -2.1 1 -3.7 2.4 -0.4 2 4.7 -0.3 4.1 -0.4 4.3 -0.5 1.2z"/>
  <path d="M641.7 1012.1 c-0.5 -6.2 -0.6 -11.5 -0.3 -11.8 0.7 -0.8 1.8 11.8 1.4 17.7 -0.2 4.2 -0.5 2.8 -1.1 -5.9z"/>
  <path d="M895 1008 c0 -1.6 -0.4 -3 -0.9 -3 -0.4 0 -0.6 -1.1 -0.3 -2.5 0.2 -1.4 0.8 -2.3 1.2 -2 0.8 0.5 1.3 10.5 0.5 10.5 -0.3 0 -0.5 -1.3 -0.5 -3z"/>
  <path d="M798.1 998.5 c-0.1 -1.1 -0.4 -3.1 -0.6 -4.5 l-0.6 -2.5 1.1 2.5 c0.6 1.3 0.9 3.3 0.7 4.5 -0.4 1.9 -0.4 1.9 -0.6 0z"/>
  <path d="M640.6 987.8 c-0.6 -9.2 -1.1 -20.9 -2.6 -64.8 -0.5 -16.2 -1.2 -35.1 -1.4 -42 -0.3 -7.9 -0.2 -11.9 0.4 -11 0.5 0.8 1 7.1 1 14 0 12.9 2.4 80.9 3.6 100.8 0.3 6.1 0.4 11.2 0.1 11.2 -0.3 0 -0.8 -3.7 -1.1 -8.2z"/>
  <path d="M893 986 c0 -2.7 -0.4 -5 -0.8 -5 -0.4 0 -0.6 -1.5 -0.4 -3.2 0.1 -1.8 -0.1 -6.9 -0.6 -11.3 -0.9 -7.4 -0.8 -9.5 0.2 -8.4 0.9 1 3.1 32.9 2.2 32.9 -0.3 0 -0.6 -2.2 -0.6 -5z"/>
  <path d="M795.1 978.8 c-0.7 -4.6 -1.4 -9.4 -1.7 -10.8 -0.4 -2.1 -0.3 -2.2 0.4 -0.5 1.1 2.4 3.5 18.5 2.9 19.1 -0.3 0.3 -1 -3.2 -1.6 -7.8z"/>
  <path d="M789.7 944.6 c-1.6 -9.8 -2.6 -18 -2.4 -18.2 0.6 -0.6 5.9 32.3 5.5 34.3 -0.2 1 -1.6 -6.2 -3.1 -16.1z"/>
  <path d="M427.3 960.2 c-5.2 -0.8 -5.3 -1.4 -5.1 -44.7 l0.3 -40 0.5 40.8 c0.5 44.7 0.2 42.7 6.6 42.7 1.6 0 3.5 -0.5 4.2 -1.2 0.9 -0.9 1.2 -10 1.3 -34.2 0.1 -18.2 0.4 -31.5 0.8 -29.6 0.3 1.9 0.5 16.7 0.4 32.9 -0.1 25.5 -0.4 29.5 -1.8 31.1 -1.9 2.1 -4 2.7 -7.2 2.2z"/>
  <path d="M785.7 921.1 c-0.4 -1.8 -0.7 -4.5 -0.6 -6 0.1 -1.7 0.4 -1.1 1 1.9 0.5 2.5 0.8 5.2 0.6 6 -0.2 0.8 -0.6 0 -1 -1.9z"/>
  <path d="M782.5 901.6 c-0.9 -5.7 -1.5 -11 -1.3 -11.7 0.3 -0.8 1.3 3.7 2.3 9.9 1 6.2 1.6 11.5 1.3 11.7 -0.3 0.3 -1.3 -4.2 -2.3 -9.9z"/>
  <path d="M434.4 883.3 c0.1 -2.7 0.3 -8.5 0.4 -13 0.3 -13.1 1.7 -9.7 2 4.7 0.1 10.5 -0.1 13 -1.2 13 -1 0 -1.3 -1.3 -1.2 -4.7z"/>
  <path d="M779.9 886.8 c0 -0.7 -0.2 -2 -0.4 -2.8 -1 -4.6 -1.5 -10.3 -0.7 -8.5 1.2 2.5 2.6 12.5 1.8 12.5 -0.3 0 -0.6 -0.6 -0.7 -1.2z"/>
  <path d="M776.5 865.5 c-0.3 -2.6 -0.4 -4.9 -0.2 -5.1 0.3 -0.3 0.8 1.6 1.2 4.1 0.3 2.6 0.4 4.9 0.2 5.1 -0.3 0.3 -0.8 -1.6 -1.2 -4.1z"/>
  <path d="M636.2 806.5 l0.3 -62 0.5 61 c0.3 33.6 0.2 61.4 -0.2 62 -0.5 0.5 -0.7 -27 -0.6 -61z"/>
  <path d="M435.7 858.3 c-0.4 -0.3 -0.7 -88.8 -0.7 -196.6 0 -107.8 0.3 -195.8 0.6 -195.5 0.4 0.4 1.2 392.8 0.8 392.8 0 0 -0.4 -0.3 -0.7 -0.7z"/>
  <path d="M774.5 854.5 c-0.4 -2.7 -1.6 -9.2 -2.6 -14.4 -1.9 -9.1 -2.3 -12.9 -1.5 -12 0.8 0.8 5.7 29 5.3 30.2 -0.2 0.7 -0.8 -1 -1.2 -3.8z"/>
  <path d="M422.2 846 c0 -1.9 0.2 -2.7 0.5 -1.7 0.2 0.9 0.2 2.5 0 3.5 -0.3 0.9 -0.5 0.1 -0.5 -1.8z"/>
  <path d="M422.3 831.5 c0 -4.4 0.2 -6.1 0.4 -3.7 0.2 2.3 0.2 5.9 0 8 -0.2 2 -0.4 0.1 -0.4 -4.3z"/>
  <path d="M767.3 816.9 c-0.6 -2.1 -0.7 -4.2 -0.3 -4.4 0.7 -0.5 2.4 7.4 1.7 8.1 -0.2 0.2 -0.8 -1.5 -1.4 -3.7z"/>
  <path d="M422.3 810.5 c0 -2.2 0.2 -3 0.4 -1.7 0.2 1.2 0.2 3 0 4 -0.3 0.9 -0.5 -0.1 -0.4 -2.3z"/>
  <path d="M859 812.6 c0 -1.7 3.2 -1.5 3.8 0.2 0.2 0.7 -0.6 1.2 -1.7 1.2 -1.2 0 -2.1 -0.6 -2.1 -1.4z"/>
  <path d="M870 813 c3.6 -1.2 7 -1.2 7 0 0 0.6 -2.1 1 -4.7 0.9 -3.9 -0.1 -4.3 -0.2 -2.3 -0.9z"/>
  <path d="M878 813.1 c0 -1.3 4.5 -1.7 9.8 -1 2.3 0.3 4.5 0.3 4.7 -0.1 0.3 -0.5 29 -0.6 30.5 0 0.3 0.1 3.1 0.1 6.3 0 3.5 -0.1 5.7 0.3 5.7 0.9 0 0.8 -8.9 1.1 -28.5 1.1 -17 0 -28.5 -0.4 -28.5 -0.9z"/>
  <path d="M938 813 c0 -0.5 2 -1 4.5 -1 2.5 0 4.5 0.5 4.5 1 0 0.6 -2 1 -4.5 1 -2.5 0 -4.5 -0.4 -4.5 -1z"/>
  <path d="M948 812.8 c0 -1 3 -1.2 12.5 -1 6.9 0.2 12.5 0.7 12.5 1.3 0 0.5 -5.3 0.9 -12.5 0.9 -9.3 0 -12.5 -0.3 -12.5 -1.2z"/>
  <path d="M974 813 c0 -0.5 1.1 -1 2.5 -1 1.4 0 2.5 0.5 2.5 1 0 0.6 -1.1 1 -2.5 1 -1.4 0 -2.5 -0.4 -2.5 -1z"/>
  <path d="M980 812.8 c0 -0.9 1.6 -1.2 5.5 -1 7.1 0.5 7.1 2.2 0 2.2 -3.7 0 -5.5 -0.4 -5.5 -1.2z"/>
  <path d="M992 813 c0 -0.6 5.5 -1.1 14.3 -1.2 19.5 -0.3 20.2 -0.3 20 -1.6 -0.2 -0.7 0.6 -1.2 1.7 -1.2 1.5 0 2 0.7 2 2.5 l0 2.5 -19 0 c-12 0 -19 -0.4 -19 -1z"/>
  <path d="M765.1 804.4 c-0.6 -3.8 -1.9 -9.8 -2.6 -13.4 -2.8 -12.3 -4.3 -21.2 -3.5 -20.3 1 1 8.2 38.1 7.8 39.5 -0.2 0.6 -1 -2 -1.7 -5.8z"/>
  <path d="M864.2 804.8 c-1.2 -1.5 -2 -4.6 -2.6 -10 -0.3 -2.1 -0.7 -4.1 -0.9 -4.5 -1.1 -1.8 1.4 -20.5 3.8 -28.3 1.4 -4.7 2.7 -9.2 2.9 -10.1 0.8 -2.9 7.9 -16.9 8.7 -16.9 0.4 0 1.1 3.1 1.5 6.9 0.7 7.5 2.4 9.6 4.3 5.4 0.7 -1.4 1.4 -2.4 1.6 -2.1 0.5 0.5 -3.5 8.8 -4.2 8.8 -0.2 0 -0.1 -0.9 0.2 -2 0.5 -1.5 0.2 -2 -1.2 -2 -1.5 0 -1.6 0.2 -0.3 1 1.2 0.8 1.2 1 -0.5 1 -1.9 0 -1.9 0 0.1 1.5 1.9 1.3 2.1 2.5 2.3 12.2 0.1 5.9 0.4 12.3 0.6 14.1 0.3 2 0 3.2 -0.8 3.2 -0.9 0 -1.1 -2.7 -0.9 -10 0.2 -6.4 0 -10 -0.7 -10 -0.6 0 -0.8 -0.7 -0.5 -1.5 0.5 -1.1 0.2 -1.3 -0.9 -0.9 -4.3 1.6 -6.3 17.9 -4.3 33.4 1.6 11.6 1.7 11.5 -3 11.8 -2.5 0.2 -4.5 -0.2 -5.2 -1z"/>
  <path d="M421.3 788.3 c0.1 -1.9 0.6 -2.8 1.1 -2.3 0.6 0.6 0.5 1.8 -0.2 3.2 -1 2.2 -1 2.1 -0.9 -0.9z"/>
  <path d="M1019.8 790.2 l-4.8 -0.3 0.2 -6.2 0.2 -6.2 0.3 5.3 0.4 5.2 4.1 0 c3.2 0 3.9 -0.3 3.4 -1.5 -0.3 -0.9 0 -1.5 0.9 -1.5 1.5 0 2.2 4.6 0.8 5.2 -0.5 0.2 -2.9 0.2 -5.5 0z"/>
  <path d="M879.8 787.5 c0.2 -1.4 0.6 -2.5 0.8 -2.5 0.2 0 0.4 1.1 0.4 2.5 0 1.4 -0.4 2.5 -0.9 2.5 -0.4 0 -0.6 -1.1 -0.3 -2.5z"/>
  <path d="M422.3 780.5 c0 -2.2 0.2 -3 0.4 -1.7 0.2 1.2 0.2 3 0 4 -0.3 0.9 -0.5 -0.1 -0.4 -2.3z"/>
  <path d="M1024.2 777 c0 -1.9 0.2 -2.7 0.5 -1.7 0.2 0.9 0.2 2.5 0 3.5 -0.3 0.9 -0.5 0.1 -0.5 -1.8z"/>
  <path d="M1013.2 770.5 c-0.6 -2.7 -0.9 -5.1 -0.7 -5.3 0.6 -0.6 2.6 7.9 2.2 9.1 -0.2 0.7 -0.9 -1 -1.5 -3.8z"/>
  <path d="M422.2 768 c0 -1.9 0.2 -2.7 0.5 -1.7 0.2 0.9 0.2 2.5 0 3.5 -0.3 0.9 -0.5 0.1 -0.5 -1.8z"/>
  <path d="M757.1 763.8 c0 -0.9 -0.4 -2.5 -0.7 -3.5 -0.5 -1.7 -0.5 -1.7 0.6 0 0.6 1 0.9 2.5 0.7 3.5 -0.4 1.5 -0.5 1.5 -0.6 0z"/>
  <path d="M1005.5 750.3 c-4.9 -8.9 -9.3 -14.4 -16.9 -21.1 -2.1 -1.8 -3.6 -3.5 -3.4 -3.7 0.7 -0.8 11.5 9.7 15.3 14.9 3.5 4.7 10 16.6 9.1 16.6 -0.2 0 -2.1 -3 -4.1 -6.7z"/>
  <path d="M1018.5 754 c0.3 -0.5 0.2 -1 -0.4 -1 -0.6 0 -0.8 -0.7 -0.5 -1.5 0.4 -0.8 0.1 -1.5 -0.6 -1.5 -0.6 0 -0.8 -0.4 -0.5 -1 0.3 -0.5 0.1 -1 -0.5 -1 -0.6 0 -0.8 -0.4 -0.5 -1 0.3 -0.5 0.1 -1 -0.5 -1 -0.6 0 -0.8 -0.4 -0.5 -1 0.3 -0.5 0.1 -1 -0.5 -1 -0.6 0 -0.8 -0.4 -0.5 -1 0.3 -0.5 0.3 -1 -0.2 -1 -0.4 0 -1.4 -1.2 -2.1 -2.7 -2.4 -5.4 -11.3 -15.6 -19.5 -22.5 -3.2 -2.6 -5.5 -4.8 -5.1 -4.8 1.2 0 10.3 7.9 14.8 12.8 2.3 2.5 4.6 5 5.1 5.6 2 2.1 8.5 12.5 11 17.4 2.7 5.4 3.1 7.2 1.4 7.2 -0.5 0 -0.7 -0.4 -0.4 -1z"/>
  <path d="M886.5 740.5 c3.6 -5.2 9.9 -11.8 15 -15.8 2.2 -1.7 0.6 0.3 -3.6 4.4 -4.2 4.1 -9 9.2 -10.9 11.4 l-3.2 4 2.7 -4z"/>
  <path d="M636.8 723.8 c0.2 -10.6 0.8 -24.2 1.2 -30.3 0.5 -6.8 0.6 0 0.3 18 -0.3 16 -0.9 29.6 -1.3 30.3 -0.3 0.7 -0.5 -7.4 -0.2 -18z"/>
  <path d="M876.2 728.8 c-0.1 -2.9 -0.5 -6.6 -0.7 -8.3 -0.4 -2.4 -0.3 -2.6 0.4 -1 0.5 1.1 1 3.8 1 6 0.2 7.1 1.2 7 9 -1.5 4 -4.4 7.7 -8 8.3 -8 0.7 0 -1.3 2.4 -4.3 5.3 -3 2.9 -6.8 6.9 -8.5 9 -1.7 2 -3.6 3.7 -4.1 3.7 -0.5 0 -1 -2.4 -1.1 -5.2z"/>
  <path d="M422.3 724.5 c0 -2.2 0.2 -3 0.4 -1.7 0.2 1.2 0.2 3 0 4 -0.3 0.9 -0.5 -0.1 -0.4 -2.3z"/>
  <path d="M906 720.6 c0 -1.8 1.5 -2.9 7.3 -5.2 l4.8 -1.9 -0.6 -5 c-0.4 -2.7 -0.9 -5.8 -1.2 -6.9 -0.3 -1.2 -0.1 -1.6 0.6 -1.2 2 1.3 3.7 22 1.7 21.3 -0.6 -0.2 -1.2 -1.4 -1.4 -2.6 -0.4 -2.5 -2.8 -2.2 -7.4 1 -3.1 2.3 -3.8 2.3 -3.8 0.5z"/>
  <path d="M898.2 712.7 c2.1 -2 6.2 -4.7 7.2 -4.7 0.5 0 -1 1.4 -3.2 3 -4.3 3.1 -6.3 4 -4 1.7z"/>
  <path d="M873 691 c0 -2.7 -0.3 -5 -0.7 -5 -0.5 0 -0.8 -2.9 -0.8 -6.4 0 -3.6 0.3 -5.9 0.8 -5.1 0.9 1.7 2.2 21.5 1.3 21.5 -0.3 0 -0.6 -2.2 -0.6 -5z"/>
  <path d="M422.5 574 c0 -63 0.1 -88.7 0.2 -57.3 0.2 31.5 0.2 83.1 0 114.5 -0.1 31.5 -0.2 5.8 -0.2 -57.2z"/>
  <path d="M638.4 675.8 c0.3 -2.9 0.8 -10.6 1.2 -17.1 0.3 -6.5 0.8 -11.6 1.1 -11.4 0.9 0.9 -1 33.7 -1.9 33.7 -0.5 0 -0.7 -2.3 -0.4 -5.2z"/>
  <path d="M869.4 656 c-0.3 -4.9 -1 -9 -1.5 -9 -0.5 0 -0.6 -0.7 -0.3 -1.5 0.5 -1.3 -0.7 -13.5 -2.2 -22 -0.3 -2.1 -0.2 -2.5 0.4 -1.5 0.5 0.8 1.5 5.8 2.2 11 0.6 5.2 1.3 10.6 1.5 12 0.9 6.3 1.7 20 1.2 20 -0.3 0 -0.9 -4 -1.3 -9z"/>
  <path d="M641.3 639.5 c0 -3.3 0.2 -4.5 0.4 -2.7 0.2 1.8 0.2 4.5 0 6 -0.2 1.5 -0.4 0 -0.4 -3.3z"/>
  <path d="M643.4 609.5 c0.4 -5.5 1.2 -13.8 1.8 -18.5 0.6 -4.9 0.8 -13.2 0.4 -19.5 -2.1 -35.8 -2.6 -47.8 -2.6 -63.4 0 -9.6 0.2 -17.2 0.4 -17 0.2 0.2 0.6 12.1 1 26.4 0.3 14.3 1.1 34.3 1.7 44.4 1 15.9 0.9 21 -0.6 37.5 -1.9 20.3 -3.2 26.8 -2.1 10.1z"/>
  <path d="M862.1 598.8 c-2.1 -16 -3.5 -55.8 -1.9 -55.8 0.4 0 0.8 -1 1.1 -2.2 0.2 -1.3 0.2 7.6 -0.1 19.7 -0.4 19.2 -0.2 24 1.8 37.8 1.2 8.7 2 16 1.8 16.3 -0.3 0.2 -1.5 -6.9 -2.7 -15.8z"/>
  <path d="M644.3 486.5 c0 -2.2 0.2 -3 0.4 -1.7 0.2 1.2 0.2 3 0 4 -0.3 0.9 -0.5 -0.1 -0.4 -2.3z"/>
  <path d="M866.7 477.3 c-0.6 -4.8 -8.7 -29.8 -14.6 -44.7 -1.7 -4.4 -2.9 -8.1 -2.7 -8.3 0.4 -0.5 12.3 25.5 17.1 37.2 3 7.5 3.5 9.8 3 13.5 -0.9 6.9 -2.1 7.9 -2.8 2.3z"/>
  <path d="M641.6 469.1 c-0.9 -1.4 -0.4 -9.1 0.6 -9.1 0.4 0 0.8 -0.4 0.8 -1 0 -0.5 -0.6 -1 -1.4 -1 -1.5 0 -2.8 -4.8 -1.5 -5.6 0.5 -0.3 0.9 0.6 0.9 2 0 1.6 0.6 2.6 1.5 2.6 1 0 1.4 1.2 1.3 4.5 0 2.5 -0.5 4.5 -1 4.5 -0.6 0 -0.8 0.9 -0.5 2 0.5 2.1 0.2 2.6 -0.7 1.1z"/>
  <path d="M438.5 464 c-2.5 -1.1 0.1 -1.1 3.5 0 2 0.6 2.1 0.8 0.5 0.8 -1.1 0 -2.9 -0.3 -4 -0.8z"/>
  <path d="M642 449.6 c0 -1.3 -0.7 -2.6 -1.5 -3 -1.2 -0.4 -1.5 -2.7 -1.5 -11.4 0 -12.3 1.1 -38.4 1.7 -37.9 0.1 0.2 0.5 8.4 0.8 18.3 0.3 9.8 0.8 19.4 1.1 21.2 0.4 2.4 0.1 3.2 -1.1 3.2 -0.8 0 -1.5 0.7 -1.5 1.5 0 0.8 0.7 1.5 1.5 1.5 1.1 0 1.5 1.2 1.5 4.5 0 2.5 -0.2 4.5 -0.5 4.5 -0.3 0 -0.5 -1.1 -0.5 -2.4z"/>
  <path d="M406 437.9 c0 -0.5 1.1 -0.9 2.5 -0.9 1.4 0 2.5 0.2 2.5 0.4 0 0.2 -1.1 0.6 -2.5 0.8 -1.4 0.3 -2.5 0.1 -2.5 -0.3z"/>
  <path d="M451 432.3 c-3.9 -2.6 -5.3 -5.3 -2.7 -5.3 0.6 0 2.2 1.6 3.5 3.5 2.6 4 2.5 4.1 -0.8 1.8z"/>
  <path d="M430 428.1 c0 -0.4 -1.1 -0.6 -2.5 -0.3 -1.4 0.2 -2.5 0 -2.5 -0.6 0 -0.6 -0.9 -0.8 -2 -0.5 -1.5 0.4 -2 0 -2 -1.6 0 -1.8 0.4 -2 2.8 -1.5 1.5 0.4 3.1 1.1 3.7 1.5 0.5 0.5 2.6 0.9 4.8 0.9 3.4 0 3.7 0.2 2.3 1.5 -1.6 1.6 -4.6 2 -4.6 0.6z"/>
  <path d="M408.9 420.4 c0 -1.1 -0.3 -1.3 -0.6 -0.6 -0.2 0.6 -0.9 1 -1.4 0.6 -1.4 -0.9 -1 -2.4 0.6 -2.4 1.7 0 3.2 2.7 2.1 3.7 -0.3 0.4 -0.6 -0.2 -0.7 -1.3z"/>
  <path d="M439.1 413.6 c-0.6 -0.8 -2.2 -1.2 -3.4 -0.9 -1.9 0.4 -2 0.3 -0.5 -0.6 0.9 -0.6 3.1 -2.6 4.9 -4.4 l3.2 -3.2 1.3 3.5 c1.7 4.7 1.7 5 -0.2 4.3 -0.8 -0.3 -1.3 -1.2 -1 -1.9 0.6 -1.6 -1.2 -1.8 -3.3 -0.5 -1.2 0.8 -1.3 1.2 -0.1 2.5 0.7 0.9 1.1 1.9 0.8 2.1 -0.3 0.3 -1 -0.1 -1.7 -0.9z"/>
  <path d="M424.6 409.9 c-1.4 -1.1 -2.6 -2.6 -2.6 -3.2 0 -0.7 0.5 -0.5 1 0.5 0.6 0.9 1.8 1.4 2.7 1.2 1.1 -0.3 2.3 0.3 3.1 1.6 1.7 2.8 -0.6 2.7 -4.2 -0.1z"/>
  <path d="M641.3 391 c0 -3 0.2 -4.3 0.4 -2.7 0.2 1.5 0.2 3.9 0 5.5 -0.2 1.5 -0.4 0.2 -0.4 -2.8z"/>
  <path d="M436.9 384.3 c-1.9 -2.2 -3.1 -158.3 -1.2 -158.3 2.4 0 2.8 -2.9 3.3 -22.5 l0.6 -20 0.2 20 c0.2 17.7 0 20.3 -1.5 22.5 -1.7 2.3 -1.8 7.9 -1.9 78.9 -0.1 72.9 -0.1 76.4 1.7 78.2 1 1 1.4 2.1 1 2.4 -0.5 0.2 -1.5 -0.3 -2.2 -1.2z"/>
  <path d="M422.5 304.5 c0 -42.9 0.1 -60.3 0.2 -38.7 0.2 21.7 0.2 56.8 0 78 -0.1 21.3 -0.2 3.6 -0.2 -39.3z"/>
  <path d="M674.6 317.1 c0.5 -0.5 2 -1.2 3.4 -1.5 l2.5 -0.7 -2.5 1.5 c-2.8 1.7 -5 2.1 -3.4 0.7z"/>
  <path d="M686 312.5 c0 -0.6 3.8 -2.2 9.7 -4.1 l4.3 -1.3 -1.7 2.5 c-1.1 1.8 -1.8 2.2 -2.4 1.3 -0.5 -0.9 -1.7 -0.8 -4.8 0.5 -4.5 1.7 -5.1 1.9 -5.1 1.1z"/>
  <path d="M828.5 303 c-6 -1.5 -10.4 -2.8 -9.8 -2.9 1.7 -0.1 23.3 5 23.3 5.5 0 0.7 -2.1 0.3 -13.5 -2.6z"/>
  <path d="M718.4 291.5 c0 -4.9 0.1 -7.1 0.3 -4.8 0.2 2.3 0.2 6.4 0 9 -0.2 2.6 -0.3 0.8 -0.3 -4.2z"/>
  <path d="M813.5 205.3 c0.3 -1 1.1 -4 1.8 -6.6 0.9 -4 0.8 -5 -0.4 -5.8 -0.8 -0.5 -0.9 -0.9 -0.4 -0.9 3.2 0 3.5 1.7 1.5 8.3 -1.2 3.7 -2.3 6.7 -2.6 6.7 -0.4 0 -0.3 -0.8 0.1 -1.7z"/>
  <path d="M669 179 c-1.1 -0.8 -0.7 -0.9 1.5 -0.4 3.7 0.8 4.5 1.4 1.9 1.4 -1 0 -2.6 -0.5 -3.4 -1z"/>
  <path d="M657.8 176.2 c-2.6 -0.9 -5 -2 -5.4 -2.5 -0.4 -0.4 1.2 -0.1 3.5 0.8 2.4 0.8 4.7 1.2 5.2 0.9 0.5 -0.3 0.9 -0.1 0.9 0.5 0 0.5 0.8 1.2 1.8 1.4 1.1 0.3 1.2 0.5 0.2 0.5 -0.8 0 -3.6 -0.7 -6.2 -1.6z"/>
  <path d="M744.3 176.3 c-1.3 -0.2 -2.3 -0.9 -2.3 -1.4 0 -1.4 2.6 -1.1 4 0.6 0.7 0.8 1.1 1.4 0.9 1.4 -0.2 -0.1 -1.4 -0.4 -2.6 -0.6z"/>
  <path d="M646.5 171.3 c-4.3 -2.2 -6.5 -4.4 -6.4 -6.2 0 -1.2 0.3 -1 1.1 0.5 0.5 1.2 2.7 3.1 4.9 4.3 2.1 1.2 3.9 2.4 3.9 2.7 0 0.6 -0.1 0.5 -3.5 -1.3z"/>
  <path d="M315.5 156.5 c-0.3 -3.1 -0.5 -5.9 -0.2 -6.1 0.3 -0.3 0.8 2 1.2 5.1 0.3 3.1 0.5 5.9 0.2 6.1 -0.3 0.3 -0.8 -2 -1.2 -5.1z"/>
  <path d="M539 161 c-1.3 -0.9 -1.3 -1.2 0.4 -2.5 1.3 -1 1.7 -2.3 1.4 -4.4 -0.2 -1.7 0 -3.2 0.5 -3.4 0.5 -0.1 1 -3.1 1.1 -6.5 0 -3.4 0.4 -6.2 0.9 -6.2 0.4 0 0.7 -0.9 0.7 -2.1 0 -1.1 0.4 -1.8 0.9 -1.5 0.5 0.3 0.3 3.5 -0.4 7.3 -0.7 3.8 -1.6 9.8 -2 13.6 -0.8 6.9 -1 7.3 -3.5 5.7z"/>
  <path d="M428 160 c0 -0.5 0.9 -1 2 -1 1.1 0 2 0.5 2 1 0 0.6 -0.9 1 -2 1 -1.1 0 -2 -0.4 -2 -1z"/>
  <path d="M500 160 c0 -0.5 0.7 -1 1.5 -1 0.8 0 1.5 0.5 1.5 1 0 0.6 -0.7 1 -1.5 1 -0.8 0 -1.5 -0.4 -1.5 -1z"/>
  <path d="M511 160 c0 -0.5 0.9 -1 2 -1 1.1 0 2 0.5 2 1 0 0.6 -0.9 1 -2 1 -1.1 0 -2 -0.4 -2 -1z"/>
  <path d="M646.3 155.7 c1 -0.8 5.6 -2.4 10.2 -3.6 6.8 -1.7 11.1 -2.1 22.2 -1.9 l13.8 0.1 -15 0.7 c-13.9 0.6 -25.6 2.5 -30.8 5.1 -2 0.9 -2.1 0.9 -0.4 -0.4z"/>
  <path d="M372 147 c0.8 -0.5 2.4 -1 3.4 -1 2.6 0 1.8 0.6 -1.9 1.4 -2.2 0.5 -2.6 0.4 -1.5 -0.4z"/>
  <path d="M414.8 145.2 c-4.2 -1.5 -8 -3 -8.4 -3.5 -0.8 -0.7 5 1 12.5 3.7 6 2.2 14.9 2 22.2 -0.4 3.4 -1.2 6.3 -1.9 6.6 -1.7 0.2 0.3 -2.4 1.4 -5.8 2.6 -8.8 2.9 -17.4 2.7 -27.1 -0.7z"/>
  <path d="M485 147 c-2.5 -0.3 -6.9 -1.7 -9.9 -2.9 -6.6 -2.7 -15.4 -3.7 -20.3 -2.3 -2.1 0.6 -3.8 0.7 -3.8 0.2 0 -1.2 3.9 -2 10 -2 3.5 0 8.5 1.1 14 3 9.7 3.4 19.7 4 25.7 1.5 2 -0.8 3.8 -1.4 4 -1.1 0.7 0.6 -7.1 3.3 -11.2 3.9 -2.2 0.2 -6 0.1 -8.5 -0.3z"/>
  <path d="M353 144.5 c-5.8 -3.1 -5 -3.1 2.5 0 3.3 1.3 5.1 2.4 4 2.4 -1.1 0 -4 -1.1 -6.5 -2.4z"/>
  <path d="M381.5 144 c0.5 -0.9 9.4 -3.4 10 -2.9 0.2 0.2 -2.1 1.1 -5 2 -3 0.9 -5.2 1.3 -5 0.9z"/>
  <path d="M326.2 141.7 c-2.7 -2.8 -2.8 -4.9 -0.4 -9 0.9 -1.8 1.8 -3.4 1.9 -3.6 0.1 -0.1 0.7 0 1.3 0.4 0.7 0.4 0.2 1.5 -1.5 3 -3 2.9 -3.2 6.5 -0.5 9 1.9 1.7 2.3 1.7 7.1 0.2 5.6 -1.8 9.3 -2 12.4 -0.7 1.3 0.6 0.5 0.7 -2.5 0.4 -2.8 -0.4 -6.2 0 -8.9 1 -5.7 2.1 -6.3 2 -8.9 -0.7z"/>
  <path d="M529.3 142 c3.8 -3.1 3.7 -7.1 -0.5 -10.5 -2.6 -2.1 -2.7 -2.4 -0.8 -1.4 6.7 3.3 6.7 10.1 0 13.3 -0.8 0.4 -0.3 -0.2 1.3 -1.4z"/>
  <path d="M506.8 141.9 c1.8 -1.9 15.6 -1.9 17.4 0 1.1 1.2 1 1.3 -0.7 0.5 -2.6 -1.1 -12.3 -1.1 -15.5 0 -2.1 0.7 -2.3 0.6 -1.2 -0.5z"/>
  <path d="M312.6 137.9 c-0.3 -1.7 -0.5 -4.3 -0.5 -5.8 0.1 -1.4 0.5 -0.2 1 2.8 1 5.8 0.6 8.3 -0.5 3z"/>
  <path d="M356.8 134.5 c-2.6 -0.9 -5 -2 -5.3 -2.5 -0.4 -0.6 1.2 -0.3 3.4 0.6 2.3 0.9 4.8 1.4 5.6 1 0.8 -0.3 1.5 -0.1 1.5 0.4 0 1.4 6.7 1.3 7.6 -0.1 0.3 -0.6 1.7 -0.8 3 -0.5 1.3 0.4 4.6 -0.3 7.6 -1.4 7.5 -2.8 8.5 -2.4 1.3 0.6 -7.6 3.2 -18.1 4 -24.7 1.9z"/>
  <path d="M414.2 132.8 c-4.5 -1.7 -8.1 -3.3 -7.9 -3.5 0.3 -0.2 3.5 0.8 7.3 2.2 3.8 1.5 10.1 3 13.9 3.5 l7 0.7 -6 0.1 c-4.4 0.1 -8.2 -0.8 -14.3 -3z"/>
  <path d="M483.5 134.6 c-5.7 -1.5 -10.5 -3.3 -10.5 -4 0 -0.3 2.6 0.4 5.8 1.5 4.5 1.6 7.5 2 14.1 1.6 4.6 -0.2 7.5 0 6.4 0.4 -4.2 1.5 -11 1.8 -15.8 0.5z"/>
  <path d="M506.5 130.5 c2.8 -1.3 5.6 -2.5 6.3 -2.5 0.6 0 1.2 -0.4 1.2 -1 0 -0.5 1.1 -1 2.4 -1 1.4 0 2.8 0.5 3.1 1 0.3 0.6 1.5 1 2.6 1 1 0 1.9 0.3 1.9 0.8 0 0.4 -2.4 0.6 -5.3 0.4 -2.9 -0.2 -7 0.3 -9.2 1.1 -7.5 2.7 -8 2.7 -3 0.2z"/>
  <path d="M545.1 131 c-0.1 -0.8 0.4 -5 1.1 -9.2 0.9 -6.2 0.9 -8 -0.2 -9.2 -1.1 -1.4 -13.7 -1.6 -117.6 -1.6 -130.4 0 -118.5 -0.7 -117.8 7.4 l0.4 4.1 -1.1 -4 c-0.7 -2.9 -0.6 -4.6 0.2 -6.3 l1.2 -2.2 117.5 0.2 c108.1 0.3 117.6 0.4 118.5 2 0.8 1.1 0.6 4.3 -0.5 11 -0.8 5.1 -1.6 8.6 -1.7 7.8z"/>
  <path d="M394.8 128.3 c1.8 -0.2 4.5 -0.2 6 0 1.5 0.2 0 0.4 -3.3 0.4 -3.3 0 -4.5 -0.2 -2.7 -0.4z"/>
  <path d="M456 128.4 c3.4 -0.7 11 -0.9 11 -0.2 0 0.5 -2.8 0.7 -6.2 0.7 -3.5 -0.1 -5.6 -0.3 -4.8 -0.5z"/>
 </g>
</svg>